<?xml version="1.0" encoding="utf-8"?>
<!-- Generator: Adobe Illustrator 21.1.0, SVG Export Plug-In . SVG Version: 6.00 Build 0)  -->
<svg version="1.1" id="Layer_1" xmlns="http://www.w3.org/2000/svg" xmlns:xlink="http://www.w3.org/1999/xlink" x="0px" y="0px"
	 viewBox="0 0 2432 1607.3" style="enable-background:new 0 0 2432 1607.3;" xml:space="preserve">
<style type="text/css">
	.st0{fill:#A8E2EF;}
	.st1{fill:#FFFFFF;}
	.st2{fill:#1AC1F0;}
	.st3{fill:#146D82;}
	.st4{fill:#F4712E;}
	.st5{fill:none;}
	.st6{fill:#74C15D;}
	.st7{fill:#834698;}
	.st8{fill:#231F20;}
	.st9{fill:#1F6FA4;}
</style>
<title>illustration-home</title>
<g>
	<path class="st0" d="M1656,256H753.7c-70.6,0-128-57.4-128-128S683.1,0,753.7,0H1656c70.6,0,128,57.4,128,128S1726.6,256,1656,256z
		 M753.7,4c-68.4,0-124,55.6-124,124s55.6,124,124,124H1656c68.4,0,124-55.6,124-124S1724.4,4,1656,4H753.7z"/>
</g>
<g>
	<g>
		<circle class="st1" cx="677.5" cy="807" r="92"/>
	</g>
	<g>
		<path class="st2" d="M678.6,901.5l-0.1-5c2,0,3.9-0.1,5.9-0.3l0.4,5C682.8,901.4,680.7,901.5,678.6,901.5z M670.4,901.2
			c-2.1-0.2-4.1-0.4-6.2-0.7l0.7-5c1.9,0.3,3.9,0.5,5.8,0.6L670.4,901.2z M693,900.2l-0.8-4.9c1.9-0.3,3.9-0.7,5.8-1.1l1.1,4.9
			C697.1,899.5,695.1,899.9,693,900.2z M656.1,899.1c-2-0.5-4-1-6-1.6l1.4-4.8c1.9,0.6,3.8,1.1,5.7,1.5L656.1,899.1z M707.1,896.8
			l-1.6-4.7c1.9-0.6,3.7-1.3,5.5-2l1.9,4.6C711,895.4,709,896.1,707.1,896.8z M642.3,894.7c-1.9-0.8-3.8-1.6-5.7-2.5l2.2-4.5
			c1.8,0.8,3.6,1.6,5.4,2.4L642.3,894.7z M720.4,891.2l-2.3-4.5c1.7-0.9,3.5-1.8,5.1-2.8l2.6,4.3
			C724.1,889.3,722.3,890.3,720.4,891.2z M629.3,888.3c-1.8-1.1-3.5-2.2-5.2-3.3l2.8-4.1c1.6,1.1,3.3,2.2,5,3.2L629.3,888.3z
			 M732.8,883.7l-2.9-4.1c1.6-1.1,3.1-2.3,4.6-3.6l3.2,3.9C736.1,881.2,734.4,882.5,732.8,883.7z M617.4,880
			c-1.6-1.3-3.2-2.7-4.7-4.1l3.4-3.6c1.4,1.3,2.9,2.6,4.4,3.9L617.4,880z M743.8,874.3l-3.5-3.6c1.4-1.4,2.8-2.8,4-4.3l3.7,3.3
			C746.7,871.4,745.3,872.9,743.8,874.3z M607,869.9c-1.4-1.5-2.7-3.1-4-4.8l3.9-3.1c1.2,1.5,2.5,3,3.8,4.5L607,869.9z M753.3,863.4
			l-4-3c1.2-1.6,2.3-3.2,3.4-4.8l4.2,2.7C755.7,860.1,754.5,861.8,753.3,863.4z M598.2,858.5c-1.1-1.7-2.2-3.5-3.2-5.3l4.4-2.4
			c1,1.7,2,3.4,3,5L598.2,858.5z M761.1,851.2l-4.4-2.3c0.9-1.7,1.8-3.5,2.6-5.3l4.6,2C762.9,847.5,762,849.4,761.1,851.2z
			 M591.3,845.8c-0.8-1.9-1.6-3.8-2.4-5.7l4.7-1.7c0.7,1.8,1.4,3.6,2.2,5.4L591.3,845.8z M766.8,837.9l-4.7-1.6
			c0.6-1.8,1.2-3.7,1.7-5.6l4.8,1.3C768.1,834,767.5,836,766.8,837.9z M586.4,832.2c-0.5-2-1-4-1.4-6l4.9-1c0.4,1.9,0.9,3.8,1.4,5.7
			L586.4,832.2z M770.5,823.9l-4.9-0.9c0.3-1.9,0.6-3.9,0.9-5.8l5,0.6C771.2,819.8,770.9,821.9,770.5,823.9z M583.6,818
			c-0.2-2-0.4-4.1-0.5-6.2l5-0.2c0.1,2,0.3,3.9,0.5,5.9L583.6,818z M772,809.5l-5-0.1c0-0.8,0-1.6,0-2.4c0-1.1,0-2.3-0.1-3.5l5-0.2
			c0,1.2,0.1,2.5,0.1,3.7C772,807.8,772,808.7,772,809.5z M588.1,803.7l-5-0.2c0.1-2.1,0.2-4.1,0.4-6.2l5,0.5
			C588.3,799.8,588.1,801.8,588.1,803.7z M766.3,795.7c-0.2-1.9-0.6-3.9-0.9-5.8l4.9-0.9c0.4,2,0.7,4.1,1,6.1L766.3,795.7z
			 M589.6,790.1l-4.9-0.9c0.4-2,0.8-4.1,1.4-6l4.8,1.3C590.4,786.3,590,788.2,589.6,790.1z M763.5,782.3c-0.5-1.9-1.1-3.8-1.8-5.6
			l4.7-1.7c0.7,1.9,1.3,3.9,1.9,5.9L763.5,782.3z M593.2,776.9l-4.7-1.7c0.7-1.9,1.5-3.9,2.3-5.8l4.6,2
			C594.6,773.2,593.9,775,593.2,776.9z M758.8,769.5c-0.8-1.8-1.7-3.5-2.6-5.2l4.4-2.4c1,1.8,1.9,3.7,2.8,5.5L758.8,769.5z
			 M598.8,764.4l-4.4-2.4c1-1.8,2-3.6,3.1-5.4l4.2,2.7C600.7,760.9,599.7,762.6,598.8,764.4z M752.1,757.5c-1.1-1.6-2.2-3.2-3.4-4.8
			l4-3c1.2,1.6,2.5,3.3,3.6,5L752.1,757.5z M606.2,752.9l-4-3c1.2-1.6,2.6-3.3,3.9-4.8l3.8,3.3C608.7,749.8,607.4,751.3,606.2,752.9
			z M743.7,746.7c-1.3-1.4-2.7-2.9-4.1-4.2l3.5-3.6c1.5,1.4,2.9,2.9,4.3,4.4L743.7,746.7z M615.3,742.6l-3.5-3.6
			c1.5-1.4,3-2.8,4.6-4.2l3.2,3.8C618.2,739.9,616.7,741.3,615.3,742.6z M733.7,737.3c-1.5-1.2-3.1-2.4-4.7-3.5l2.9-4.1
			c1.7,1.2,3.3,2.4,5,3.7L733.7,737.3z M625.9,733.9l-2.9-4.1c1.7-1.2,3.4-2.3,5.2-3.4l2.6,4.3C629.1,731.7,627.5,732.7,625.9,733.9
			z M722.4,729.6c-1.7-1-3.4-1.9-5.2-2.8l2.2-4.5c1.8,0.9,3.7,1.9,5.5,2.9L722.4,729.6z M637.6,726.8l-2.2-4.5
			c1.8-0.9,3.7-1.8,5.6-2.6l1.9,4.6C641.2,725.2,639.4,726,637.6,726.8z M710,723.6c-1.8-0.7-3.7-1.4-5.5-2l1.5-4.8
			c2,0.6,3.9,1.3,5.9,2.1L710,723.6z M650.3,721.7l-1.5-4.8c2-0.6,4-1.2,6-1.7l1.2,4.9C654.1,720.6,652.2,721.1,650.3,721.7z
			 M696.9,719.6c-1.9-0.4-3.8-0.8-5.8-1.1l0.8-4.9c2,0.3,4.1,0.7,6.1,1.1L696.9,719.6z M663.7,718.6l-0.8-4.9c2-0.3,4.1-0.6,6.2-0.7
			l0.4,5C667.5,718,665.6,718.3,663.7,718.6z M683.4,717.7c-1.9-0.1-3.9-0.2-5.9-0.2l-0.2,0v-5l0.1,0c0,0,0,0,0,0
			c2.1,0,4.2,0.1,6.2,0.2L683.4,717.7z"/>
	</g>
</g>
<g>
	<path class="st1" d="M463.9,1123.3c-56.9,0-109,31.7-135.1,82.2H599C572.9,1155,520.7,1123.3,463.9,1123.3z"/>
	<path class="st3" d="M599,1207.5H328.8l-1.8-2.9c26.6-51.4,79-83.3,136.8-83.3c0,0,0,0,0.1,0c57.8,0,110.3,31.9,136.8,83.3
		L599,1207.5z M332.1,1203.5h263.6c-26.3-48.3-76.5-78.2-131.7-78.2c0,0,0,0,0,0h0c0,0,0,0,0,0
		C408.6,1125.3,358.5,1155.2,332.1,1203.5z"/>
</g>
<g>
	<path class="st1" d="M2096.7,1025.5c-128.8,0-240.5,73.1-295.9,180h591.8C2337.1,1098.6,2225.4,1025.5,2096.7,1025.5z"/>
	<path class="st3" d="M2392.6,1207.5h-591.8l-1.8-2.9c27.8-53.7,69.7-98.9,121.2-130.9c52.9-32.8,113.9-50.2,176.5-50.2
		c62.6,0,123.6,17.4,176.5,50.2c51.4,31.9,93.3,77.2,121.2,130.9L2392.6,1207.5z M1804.1,1203.5h585.2
		c-27.5-51.8-68.3-95.4-118.2-126.4c-52.3-32.4-112.6-49.6-174.4-49.6c-61.8,0-122.1,17.2-174.4,49.6
		C1872.4,1108.1,1831.6,1151.7,1804.1,1203.5z"/>
</g>
<g>
	<path class="st3" d="M1310.5,1207h-196V729h196V1207z M1118.5,1203h188V733h-188V1203z"/>
</g>
<g>
	<polygon class="st0" points="1372,1205 1308.5,1205 1308.5,730 1372,761.2 	"/>
	<path class="st3" d="M1374,1207h-67.5V726.8L1374,760V1207z M1310.5,1203h59.5V762.5l-59.5-29.3V1203z"/>
</g>
<g>
	<path class="st3" d="M1830.5,1207h-196V619h196V1207z M1638.5,1203h188V623h-188V1203z"/>
</g>
<g>
	<polygon class="st0" points="1892,1205 1828.5,1205 1828.5,620 1892,651.2 	"/>
	<path class="st3" d="M1894,1207h-67.5V616.8L1894,650V1207z M1830.5,1203h59.5V652.5l-59.5-29.3V1203z"/>
</g>
<g>
	<rect x="1147.5" y="763" class="st0" width="47" height="442"/>
	<path class="st3" d="M1196.5,1207h-51V761h51V1207z M1149.5,1203h43V765h-43V1203z"/>
</g>
<g>
	<rect x="1222.5" y="763" class="st0" width="47" height="442"/>
	<path class="st3" d="M1271.5,1207h-51V761h51V1207z M1224.5,1203h43V765h-43V1203z"/>
</g>
<g>
	<rect x="1346.5" y="311" class="st1" width="256" height="894"/>
	<path class="st3" d="M1604.5,1207h-260V309h260V1207z M1348.5,1203h252V313h-252V1203z"/>
</g>
<g>
	<polygon class="st0" points="1730.5,1205 1602.5,1205 1602.5,311 1730.5,374 	"/>
	<path class="st3" d="M1732.5,1207h-132V307.8l132,65V1207z M1604.5,1203h124V375.2l-124-61V1203z"/>
</g>
<g>
	<rect x="1346" y="351" class="st3" width="255.4" height="4"/>
</g>
<g>
	<rect x="1346.6" y="398" class="st3" width="255.4" height="4"/>
</g>
<g>
	<rect x="1346" y="445" class="st3" width="255.4" height="4"/>
</g>
<g>
	<rect x="1346.6" y="492" class="st3" width="255.4" height="4"/>
</g>
<g>
	<rect x="1346" y="536" class="st3" width="255.4" height="4"/>
</g>
<g>
	<rect x="1346.6" y="583" class="st3" width="255.4" height="4"/>
</g>
<g>
	<rect x="1346" y="630" class="st3" width="255.4" height="4"/>
</g>
<g>
	<rect x="1346.6" y="677" class="st3" width="255.4" height="4"/>
</g>
<g>
	<rect x="1346" y="724" class="st3" width="255.4" height="4"/>
</g>
<g>
	<rect x="1346.6" y="771" class="st3" width="255.4" height="4"/>
</g>
<g>
	<rect x="1346" y="818" class="st3" width="255.4" height="4"/>
</g>
<g>
	<rect x="1346.6" y="865" class="st3" width="255.4" height="4"/>
</g>
<g>
	<rect x="1346" y="912" class="st3" width="255.4" height="4"/>
</g>
<g>
	<rect x="1346.6" y="959" class="st3" width="255.4" height="4"/>
</g>
<g>
	<rect x="1346" y="1006" class="st3" width="255.4" height="4"/>
</g>
<g>
	<rect x="1364" y="1053" class="st3" width="237" height="4"/>
</g>
<g>
	<rect x="1364" y="1097" class="st3" width="237" height="4"/>
</g>
<g>
	<rect x="1363.5" y="1144" class="st3" width="216" height="4"/>
</g>
<g>
	<rect x="1764.5" y="843" class="st1" width="192" height="362"/>
	<path class="st3" d="M1958.5,1207h-196V841h196V1207z M1766.5,1203h188V845h-188V1203z"/>
</g>
<g>
	<polygon class="st0" points="2020,1205 1956.5,1205 1956.5,842 2020,873.2 	"/>
	<path class="st3" d="M2022,1207h-67.5V838.8L2022,872V1207z M1958.5,1203h59.5V874.5l-59.5-29.3V1203z"/>
</g>
<g>
	<rect x="1790.5" y="876" class="st0" width="138" height="37"/>
	<path class="st3" d="M1930.5,915h-142v-41h142V915z M1792.5,911h134v-33h-134V911z"/>
</g>
<g>
	<rect x="1790.5" y="941.4" class="st0" width="138" height="37"/>
	<path class="st3" d="M1930.5,980.3h-142v-41h142V980.3z M1792.5,976.3h134v-33h-134V976.3z"/>
</g>
<g>
	<rect x="1790.5" y="1006.8" class="st0" width="138" height="36.9"/>
	<path class="st3" d="M1930.5,1045.7h-142v-41h142V1045.7z M1792.5,1041.7h134v-33h-134V1041.7z"/>
</g>
<g>
	<rect x="1790.5" y="1072.2" class="st0" width="138" height="36.9"/>
	<path class="st3" d="M1930.5,1111.1h-142v-41h142V1111.1z M1792.5,1107.1h134v-33h-134V1107.1z"/>
</g>
<g>
	<rect x="1790.5" y="1137.6" class="st0" width="138" height="36.9"/>
	<path class="st3" d="M1930.5,1176.5h-142v-41h142V1176.5z M1792.5,1172.5h134v-33h-134V1172.5z"/>
</g>
<g>
	<rect y="1202.5" class="st3" width="2432" height="4"/>
</g>
<g>
	<rect x="1168.5" y="621" class="st3" width="4" height="105"/>
</g>
<g>
	<rect x="1701" y="271.5" class="st3" width="4" height="89"/>
</g>
<g>
	<rect x="1955" y="731.5" class="st3" width="4" height="114"/>
</g>
<g>
	<rect x="1788" y="517.5" class="st3" width="4" height="103"/>
</g>
<g>
	
		<rect x="1664.5" y="311.8" transform="matrix(0.4333 -0.9012 0.9012 0.4333 599.429 1718.8444)" class="st3" width="4" height="142"/>
</g>
<g>
	
		<rect x="1858.2" y="624.1" transform="matrix(0.4151 -0.9098 0.9098 0.4151 488.563 2077.9253)" class="st3" width="4" height="69.8"/>
</g>
<g>
	<polygon class="st1" points="443,1205.5 443.5,1073 415.6,1036.2 456.5,1073 518.6,1011.9 463.5,1099 473,1205.5 	"/>
	<path class="st3" d="M475.2,1207.5H441l0.5-133.8l-27.5-36.2l2.9-2.7l39.5,35.5l73.2-72l-64.1,101.2L475.2,1207.5z M445,1203.5
		h25.8l-9.4-105l46.2-73l-51.1,50.3l-26.6-23.9l15.6,20.5L445,1203.5z"/>
</g>
<g>
	<path class="st1" d="M468,926c-73.2,0-132.5,59.3-132.5,132.5c0,4.8,0.3,9.7,0.8,14.5l256-60.6C573,960.5,523.4,926,468,926z"/>
	<path class="st3" d="M334.5,1075.5l-0.2-2.3c-0.5-4.9-0.8-9.8-0.8-14.7c0-74.2,60.3-134.5,134.5-134.5h0c0,0,0,0,0,0
		c27.6,0,54.2,8.3,76.8,24.1c22.7,15.8,39.7,37.8,49.3,63.6l0.8,2.1l-2.2,0.5L334.5,1075.5z M468,928c-72,0-130.5,58.6-130.5,130.5
		c0,4,0.2,8,0.6,12l251.6-59.5c-9.5-24.2-25.7-44.8-47.1-59.6C520.6,936.1,494.8,928,468,928C468,928,468,928,468,928L468,928z"/>
</g>
<g>
	<path class="st1" d="M2091.7,932.5c-45.3,0-82,36.7-82,82c0,3,0.2,6,0.5,9l158.5-37.5C2156.7,953.8,2126,932.5,2091.7,932.5z"/>
	<path class="st3" d="M2008.4,1026l-0.2-2.3c-0.3-3.1-0.5-6.2-0.5-9.2c0-46.3,37.7-84,84-84l0,0c0,0,0,0,0,0c35,0,66.6,22,78.8,54.8
		l0.8,2.1L2008.4,1026z M2091.7,934.5c-44.1,0-80,35.9-80,80c0,2.2,0.1,4.4,0.3,6.5l154-36.4
		C2153.8,954.5,2124.2,934.5,2091.7,934.5C2091.7,934.5,2091.7,934.5,2091.7,934.5L2091.7,934.5z"/>
</g>
<g>
	<path class="st1" d="M405.4,1018c-45.3,0-82,36.7-82,82c0,3,0.2,6,0.5,9l158.5-37.5C470.4,1039.3,439.7,1018,405.4,1018z"/>
	<path class="st3" d="M322.1,1111.5l-0.2-2.3c-0.3-3-0.5-6.1-0.5-9.2c0-46.3,37.7-84,84-84h0c0,0,0,0,0,0c35,0,66.6,22,78.8,54.8
		l0.8,2.1L322.1,1111.5z M405.4,1020C405.4,1020,405.4,1020,405.4,1020L405.4,1020c-44.2,0-80,35.9-80,80c0,2.2,0.1,4.4,0.3,6.5
		l154-36.4C467.5,1040,437.9,1020,405.4,1020z"/>
</g>
<g>
	<path class="st1" d="M2154.7,979.5c-45.3,0-82,36.7-82,82l0,0c0,3,0.2,6,0.5,9l158.5-37.5C2219.7,1000.8,2189,979.5,2154.7,979.5z"
		/>
	<path class="st3" d="M2071.4,1073l-0.2-2.3c-0.3-3.1-0.5-6.2-0.5-9.2c0-46.3,37.7-84,84-84h0c0,0,0,0,0,0c35,0,66.6,22,78.8,54.8
		l0.8,2.1L2071.4,1073z M2154.7,981.5C2154.7,981.5,2154.7,981.5,2154.7,981.5L2154.7,981.5c-44.2,0-80,35.9-80,80
		c0,2.2,0.1,4.4,0.3,6.5l154-36.4C2216.8,1001.5,2187.3,981.5,2154.7,981.5z"/>
</g>
<g>
	<path class="st3" d="M2116,1207.5h-25.6l6.9-77.6l-48.3-76.4l55.4,54.5l27.8-25l2.9,2.7l-19.5,25.7L2116,1207.5z M2094.7,1203.5
		h17.2l-0.4-93.3l7.6-10l-14.9,13.4l-33.4-32.8l30.5,48.2L2094.7,1203.5z"/>
</g>
<g>
	<path class="st1" d="M2057.1,998.8c52.3,0,94.7,42.4,94.7,94.7c0,3.5-0.2,6.9-0.6,10.3l-182.9-43.3
		C1982.1,1023.4,2017.5,998.8,2057.1,998.8z"/>
	<path class="st3" d="M2153,1106.3l-187.3-44.3l0.8-2.1c14-37.7,50.4-63.1,90.7-63.1l0,0c53.3,0,96.7,43.4,96.7,96.7
		c0,3.5-0.2,7.1-0.6,10.6L2153,1106.3z M1971,1059.1l178.5,42.2c0.2-2.6,0.3-5.3,0.3-7.9c0-51.1-41.6-92.7-92.7-92.7
		C2019.3,1000.8,1985,1024.1,1971,1059.1z"/>
</g>
<g>
	<polygon class="st1" points="681,1205.1 697.3,1109.3 700,1072.5 677.1,1086.8 689,1037.5 695,1058.5 703,1050.5 715.7,1048.3 
		745.8,1080.1 750,1116.5 738.3,1086.8 725.8,1079.2 736.2,1205.5 710.7,1124.4 	"/>
	<path class="st3" d="M734.3,1206.1l-23.7-75.5l-27.7,75.2l-3.8-1l16.3-95.6l2.4-32.8l-19.6,12.2l-3-2.2l11.9-49.3l3.9-0.1l5.1,17.7
		l5.6-5.6l1.1-0.6l12.7-2.2l1.8,0.6l30.1,31.8l0.5,1.1l4.2,36.4l-3.8,1l-11.5-29.1l-8.6-5.2l10.1,122.4L734.3,1206.1z M708.8,1123.7
		l3.8,0.1l20.1,64l-9-108.4l3-1.9l12.5,7.5l0.8,1l6.1,15.5l-2.4-20.6l-28.9-30.5l-11,1.9l-7.6,7.5l-3.3-0.9l-3.9-13.7l-9,37.2
		l18.8-11.7l3.1,1.8l-2.7,37l-12.7,74.3L708.8,1123.7z"/>
</g>
<g>
	<ellipse class="st1" cx="708.2" cy="1030.2" rx="10.8" ry="12.2"/>
	<path class="st3" d="M708.2,1044.5c-7.1,0-12.8-6.4-12.8-14.2c0-7.9,5.8-14.2,12.8-14.2s12.8,6.4,12.8,14.2
		C721,1038.1,715.2,1044.5,708.2,1044.5z M708.2,1020c-4.9,0-8.8,4.6-8.8,10.2c0,5.6,4,10.2,8.8,10.2s8.8-4.6,8.8-10.2
		C717,1024.6,713,1020,708.2,1020z"/>
</g>
<g>
	<ellipse class="st1" cx="889.2" cy="1069.2" rx="10.8" ry="12.2"/>
	<path class="st3" d="M889.2,1083.5c-7.1,0-12.8-6.4-12.8-14.2c0-7.9,5.8-14.2,12.8-14.2s12.8,6.4,12.8,14.2
		C902,1077.1,896.2,1083.5,889.2,1083.5z M889.2,1059c-4.9,0-8.8,4.6-8.8,10.2c0,5.6,4,10.2,8.8,10.2s8.8-4.6,8.8-10.2
		C898,1063.6,894,1059,889.2,1059z"/>
</g>
<g>
	<path class="st1" d="M1045.6,1073.7c-91.2,0-174.7,50.8-216.6,131.8h433.2C1220.3,1124.5,1136.8,1073.7,1045.6,1073.7z"/>
	<path class="st3" d="M1262.2,1207.5H829l-1.8-2.9c20.7-40,52-73.6,90.6-97c38.5-23.4,82.7-35.8,127.8-35.8c0,0,0.1,0,0.1,0
		c45.1,0,89.3,12.4,127.8,35.8c38.5,23.4,69.8,57,90.6,97L1262.2,1207.5z M832.3,1203.5h426.6c-20.4-38.1-50.6-70.1-87.6-92.5
		c-37.9-23-81.3-35.2-125.7-35.2c0,0,0,0-0.1,0h0c0,0,0,0-0.1,0c-44.3,0-87.8,12.2-125.7,35.2
		C882.9,1133.4,852.7,1165.4,832.3,1203.5z"/>
</g>
<g>
	<path class="st1" d="M1654.9,1123.3c-56.9,0-109,31.7-135.1,82.2H1790C1763.9,1155,1711.7,1123.3,1654.9,1123.3z"/>
	<path class="st3" d="M1790,1207.5h-270.2l-1.8-2.9c26.6-51.4,79-83.3,136.8-83.3c0,0,0,0,0.1,0c57.8,0,110.3,31.9,136.8,83.3
		L1790,1207.5z M1523.1,1203.5h263.6c-26.3-48.3-76.5-78.2-131.7-78.2c0,0,0,0,0,0l0,0c0,0,0,0,0,0
		C1599.6,1125.3,1549.5,1155.2,1523.1,1203.5z"/>
</g>
<g>
	<path class="st1" d="M1306.7,1025.5c-128.8,0-240.5,73.1-295.9,180h591.8C1547.1,1098.6,1435.4,1025.5,1306.7,1025.5z"/>
	<path class="st3" d="M1602.6,1207.5h-591.8l-1.8-2.9c27.8-53.7,69.7-98.9,121.2-130.9c52.9-32.8,113.9-50.2,176.5-50.2
		c62.6,0,123.6,17.4,176.5,50.2c51.4,31.9,93.3,77.2,121.2,130.9L1602.6,1207.5z M1014.1,1203.5h585.2
		c-27.5-51.8-68.3-95.4-118.2-126.4c-52.3-32.4-112.6-49.6-174.4-49.6c-61.8,0-122.1,17.2-174.4,49.6
		C1082.4,1108.1,1041.6,1151.7,1014.1,1203.5z"/>
</g>
<g>
	<rect x="741" y="1112.5" class="st1" width="16" height="46"/>
	<path class="st3" d="M757,1160.5h-16l-2-2v-46l2-2h16l2,2v46L757,1160.5z M743,1156.5h12v-42h-12V1156.5z"/>
</g>
<g>
	<polygon class="st0" points="1016,1204.5 1016,1111.5 1020,1072.5 1008,1090.5 1005,1048.5 1012,1063.5 1027,1047.5 1039,1048.5 
		1062,1076.5 1049,1116.5 1051,1085.5 1045.8,1079.2 1056.2,1205.5 1030.7,1124.4 	"/>
	<path class="st3" d="M1056.2,1207.5c-0.9,0-1.6-0.6-1.9-1.4l-23.1-73.4l-13.2,72.2c-0.2,1-1.1,1.7-2.1,1.6c-1-0.1-1.8-1-1.8-2v-93
		c0-0.1,0-0.1,0-0.2l3.2-31l-7.5,11.3c-0.5,0.7-1.3,1-2.2,0.8c-0.8-0.2-1.4-0.9-1.5-1.8l-3-42c-0.1-1,0.6-1.8,1.5-2.1
		c0.9-0.2,1.9,0.2,2.3,1.1l5.8,12.3l13-13.8c0.4-0.4,1-0.7,1.6-0.6l12,1c0.5,0,1,0.3,1.4,0.7l23,28c0.4,0.5,0.6,1.2,0.4,1.9l-13,40
		c0,0,0,0,0,0l7.3,88.2c0.1,1-0.6,1.9-1.6,2.1C1056.5,1207.5,1056.3,1207.5,1056.2,1207.5z M1030.7,1122.4c0.9,0,1.6,0.6,1.9,1.4
		l20.1,64l-9-108.4c-0.1-0.9,0.4-1.7,1.2-2c0.8-0.3,1.7-0.1,2.3,0.6l5.2,6.2c0.3,0.4,0.5,0.9,0.5,1.4l-1,15.1l7.7-23.8l-21.8-26.5
		l-10.2-0.8l-14.3,15.3c-0.5,0.5-1.1,0.7-1.8,0.6c-0.7-0.1-1.2-0.5-1.5-1.1l-2.4-5.2l1.8,25.4l8.8-13.1c0.5-0.8,1.5-1.1,2.3-0.8
		c0.9,0.3,1.4,1.2,1.3,2.1l-4,38.9v70.9l10.7-58.5c0.2-0.9,0.9-1.6,1.8-1.6C1030.6,1122.4,1030.7,1122.4,1030.7,1122.4z
		 M1048.3,1085.3l0.4,5l0.3-4.2L1048.3,1085.3z"/>
</g>
<g>
	<ellipse class="st0" cx="1034.2" cy="1030.2" rx="10.8" ry="12.2"/>
	<path class="st3" d="M1034.2,1044.5c-7.1,0-12.8-6.4-12.8-14.2c0-7.9,5.8-14.2,12.8-14.2s12.8,6.4,12.8,14.2
		C1047,1038.1,1041.2,1044.5,1034.2,1044.5z M1034.2,1020c-4.9,0-8.8,4.6-8.8,10.2c0,5.6,4,10.2,8.8,10.2s8.8-4.6,8.8-10.2
		C1043,1024.6,1039,1020,1034.2,1020z"/>
</g>
<g>
	<ellipse class="st0" cx="1285.2" cy="1069.2" rx="10.8" ry="12.2"/>
	<path class="st3" d="M1285.2,1083.5c-7.1,0-12.8-6.4-12.8-14.2c0-7.9,5.8-14.2,12.8-14.2s12.8,6.4,12.8,14.2
		C1298,1077.1,1292.2,1083.5,1285.2,1083.5z M1285.2,1059c-4.9,0-8.8,4.6-8.8,10.2c0,5.6,4,10.2,8.8,10.2s8.8-4.6,8.8-10.2
		C1294,1063.6,1290,1059,1285.2,1059z"/>
</g>
<g>
	<ellipse class="st0" cx="213.2" cy="1030.2" rx="10.8" ry="12.2"/>
	<path class="st3" d="M213.2,1044.5c-7.1,0-12.8-6.4-12.8-14.2c0-7.9,5.8-14.2,12.8-14.2s12.8,6.4,12.8,14.2
		C226,1038.1,220.2,1044.5,213.2,1044.5z M213.2,1020c-4.9,0-8.8,4.6-8.8,10.2c0,5.6,4,10.2,8.8,10.2s8.8-4.6,8.8-10.2
		C222,1024.6,218,1020,213.2,1020z"/>
</g>
<g>
	<polygon class="st0" points="226.4,1099 226.4,1099 224,1066.5 241,1063.5 280,1035.5 236,1051.5 214.7,1048.3 202,1050.5 
		180.2,1070.1 160,1048.5 176.1,1086.8 199,1072.5 197.4,1094.7 197.4,1094.7 174,1168.5 186.5,1166.8 180,1205.1 194.5,1165.8 
		221.6,1162.2 235.2,1205.5 231.5,1160.8 249,1158.5 	"/>
	<path class="st3" d="M235.2,1207.5c-0.9,0-1.6-0.6-1.9-1.4l-13.1-41.7l-24.2,3.2l-14.1,38.2c-0.4,1-1.4,1.5-2.4,1.2
		s-1.6-1.2-1.5-2.3l6.1-35.6l-9.8,1.3c-0.7,0.1-1.4-0.2-1.8-0.7c-0.4-0.5-0.6-1.2-0.4-1.9l23.3-73.6l1.3-18l-19.6,12.2
		c-0.5,0.3-1.1,0.4-1.7,0.2c-0.6-0.2-1-0.6-1.2-1.1l-16.1-38.3c-0.4-0.9-0.1-1.9,0.8-2.5s1.9-0.4,2.5,0.3l18.9,20.1l20.3-18.3
		c0.3-0.3,0.6-0.4,1-0.5l12.7-2.2c0.2,0,0.4,0,0.6,0l20.8,3.1l43.5-15.8c0.9-0.3,2,0.1,2.5,0.9c0.5,0.9,0.2,2-0.6,2.6l-39,28
		c-0.2,0.2-0.5,0.3-0.8,0.3l-15.2,2.7l2.2,30.4l22.5,59.2c0.2,0.6,0.2,1.2-0.2,1.7s-0.8,0.9-1.5,1l-15.6,2.1l3.5,42.8
		c0.1,1-0.6,1.9-1.6,2.1C235.5,1207.5,235.3,1207.5,235.2,1207.5z M221.6,1160.2c0.9,0,1.6,0.6,1.9,1.4l8.2,26.2l-2.2-26.8
		c-0.1-1.1,0.7-2,1.7-2.1l15-2l-21.7-57.1c-0.1-0.2-0.1-0.4-0.1-0.6l-2.4-32.5c-0.1-1,0.6-1.9,1.6-2.1l16.6-2.9l26.8-19.3l-30.4,11
		c-0.3,0.1-0.7,0.1-1,0.1l-21-3.1l-11.8,2l-21.3,19.2c-0.8,0.7-2,0.7-2.8-0.1l-12.7-13.5l10.9,25.9l20.9-13c0.6-0.4,1.4-0.4,2.1,0
		c0.6,0.4,1,1.1,1,1.9l-1.6,22.2c0,0.2,0,0.3-0.1,0.5l-22.4,70.8l9.4-1.3c0.6-0.1,1.3,0.1,1.7,0.6c0.4,0.5,0.6,1.1,0.5,1.7
		l-2.9,16.9l7-19c0.3-0.7,0.9-1.2,1.6-1.3l27.1-3.6C221.4,1160.2,221.5,1160.2,221.6,1160.2z"/>
</g>
<g>
	<g>
		<ellipse class="st1" cx="1898.6" cy="1049.2" rx="9.7" ry="10.9"/>
		<path class="st3" d="M1898.6,1062.1c-6.4,0-11.7-5.8-11.7-12.9s5.2-12.9,11.7-12.9s11.7,5.8,11.7,12.9S1905,1062.1,1898.6,1062.1z
			 M1898.6,1040.3c-4.2,0-7.7,4-7.7,8.9s3.4,8.9,7.7,8.9s7.7-4,7.7-8.9S1902.8,1040.3,1898.6,1040.3z"/>
	</g>
	<g>
		<polygon class="st1" points="1886.8,1110.5 1886.8,1110.5 1888.9,1081.6 1880,1090.5 1866,1115.5 1875,1080.5 1900,1065.5 
			1910,1072.5 1918,1076.5 1917,1055.5 1930,1082.5 1911.2,1086.9 1912.7,1106.7 1912.7,1106.7 1933.5,1172.5 1922.3,1171 
			1928.2,1205.1 1915.2,1170.1 1891.1,1166.8 1878.9,1205.5 1882.2,1165.7 1866.6,1163.6 		"/>
		<path class="st3" d="M1880.9,1206.1l-3.9-0.8l3.1-37.9l-13.7-1.8l-1.6-2.7l20.1-52.8l1.7-23.3l-4.9,4.9l-13.9,24.8l-3.7-1.5l9-35
			l0.9-1.2l25-15l2.2,0.1l9.9,6.9l4.8,2.4l-0.8-17.6l3.8-1l13,27l-1.3,2.8l-17.1,4l1.3,17.8l20.8,65.6l-2.2,2.6l-8.5-1.1l5.4,31.4
			l-3.8,1l-12.5-33.9l-21.3-2.8L1880.9,1206.1z M1869.4,1161.9l13.1,1.7l1.7,2.1l-1.8,22l6.8-21.5l2.2-1.4l24.2,3.2l1.6,1.3
			l5.4,14.7l-2.2-12.7l2.2-2.3l8.1,1.1l-19.9-62.8l-0.1-0.5l-1.4-19.8l1.5-2.1l16.4-3.8l-7.7-15.9l0.5,11.2l-2.9,1.9l-8.3-4.2
			l-8.9-6.3l-23.2,13.9l-5,19.3l6.5-11.6l0.3-0.4l8.9-8.9l3.4,1.6l-2.1,29l-0.1,0.6L1869.4,1161.9z"/>
	</g>
</g>
<g>
	<ellipse class="st1" cx="123.3" cy="1080.8" rx="8.7" ry="9.8"/>
	<path class="st3" d="M123.3,1092.6c-5.9,0-10.7-5.3-10.7-11.8c0-6.5,4.8-11.8,10.7-11.8s10.7,5.3,10.7,11.8
		C134,1087.3,129.2,1092.6,123.3,1092.6z M123.3,1072.9c-3.7,0-6.7,3.5-6.7,7.8s3,7.8,6.7,7.8s6.7-3.5,6.7-7.8
		S127,1072.9,123.3,1072.9z"/>
</g>
<g>
	<polygon class="st1" points="132.2,1108.7 140,1114.5 154,1129.5 135,1097.5 125.9,1096.4 117.3,1097.9 102.7,1111.1 101,1145.5 
		108,1120.5 115.3,1112.7 98.4,1177.5 106.9,1176.4 102.5,1202.2 112.3,1175.7 130.6,1173.2 139.8,1202.5 137.3,1172.3 
		149.1,1170.8 	"/>
	<path class="st3" d="M137.9,1203.1l-8.7-27.7l-15.4,2.1l-9.3,25.4l-3.8-1l3.9-23.1l-5.8,0.8l-2.2-2.5l14.9-57.2l-1.6,1.7l-6.9,24.5
		l-3.9-0.6l1.7-34.4l0.7-1.4l14.7-13.2l1-0.5l8.6-1.5l0.6,0l9.1,1.1l1.5,1l19,32l-3.2,2.4l-13.9-14.9l-3-2.2l15.3,56.5l-1.7,2.5
		l-9.9,1.3l2.3,28.3L137.9,1203.1z M130.3,1171.3l2.2,1.4l3.8,12.1l-1-12.3l1.7-2.1l9.5-1.3l-16.3-59.9l3.1-2.1l8.1,6.1l1.4,1.5
		l-9-15.2l-7.8-0.9l-7.7,1.3l-13.6,12.3l-0.8,15.9l2.2-7.9l0.5-0.8l7.3-7.8l3.4,1.9l-16.1,61.9l5.5-0.7l2.2,2.3l-0.8,4.4l2.3-6.2
		l1.6-1.3L130.3,1171.3z"/>
</g>
<g>
	<path class="st1" d="M860.5,1140.4l-31.5,5.1l-4.3,59.5l25.3-42.5l37.6-1.5l11.4-73.5l-12,4l-14,17l-27,27l24-14l-1,11
		C869,1132.5,862.2,1140,860.5,1140.4z"/>
	<path class="st3" d="M826.4,1206l-3.7-1.2l4.3-59.5l1.7-1.8l31.3-5.1c1-0.6,4.3-3.8,7.1-6.8l0.6-6.5l-20.6,12l-2.4-3.1l26.9-26.9
		l13.9-16.9l0.9-0.6l12-4l2.6,2.2l-11.4,73.5l-1.9,1.7l-36.5,1.4L826.4,1206z M830.9,1147.2l-3.6,49.5l21-35.2l1.6-1l35.9-1.4
		l10.7-68.7l-8.3,2.8l-13.8,16.7l-16.1,16.1l10.6-6.2l3,1.9l-1,11l-0.5,1.2c-4.8,5.3-8,8.1-9.5,8.5l-0.1,0L830.9,1147.2z"/>
</g>
<g>
	<rect x="860" y="1162.5" class="st1" width="33" height="42"/>
	<path class="st3" d="M893,1206.5h-33l-2-2v-42l2-2h33l2,2v42L893,1206.5z M862,1202.5h29v-38h-29V1202.5z"/>
</g>
<g>
	<ellipse class="st0" cx="1513.5" cy="1069.2" rx="10.8" ry="12.2"/>
	<path class="st3" d="M1513.5,1083.5c-7.1,0-12.8-6.4-12.8-14.2c0-7.9,5.8-14.2,12.8-14.2s12.8,6.4,12.8,14.2
		C1526.3,1077.1,1520.6,1083.5,1513.5,1083.5z M1513.5,1059c-4.9,0-8.8,4.6-8.8,10.2c0,5.6,4,10.2,8.8,10.2s8.8-4.6,8.8-10.2
		C1522.3,1063.6,1518.4,1059,1513.5,1059z"/>
</g>
<g>
	<path class="st0" d="M1542.2,1140.4l24.5,8.1l11.3,56.5l-25.3-42.5l-37.6-1.5l-11.4-73.5l12,4l14,17l28-18l-25,31l1,11
		C1533.7,1132.5,1540.4,1140,1542.2,1140.4z"/>
	<path class="st3" d="M1578,1207c-0.7,0-1.3-0.4-1.7-1l-24.8-41.6l-36.5-1.4c-1,0-1.8-0.7-1.9-1.7l-11.4-73.5
		c-0.1-0.7,0.2-1.4,0.7-1.8c0.5-0.5,1.3-0.6,1.9-0.4l12,4c0.4,0.1,0.7,0.3,0.9,0.6l12.9,15.6l26.5-17c0.8-0.5,1.9-0.4,2.6,0.3
		c0.7,0.7,0.7,1.8,0.1,2.6l-24.5,30.4l0.9,9.5c2.8,3,6.1,6.3,7.1,6.8c0,0,0,0,0.1,0l24.5,8.1c0.7,0.2,1.2,0.8,1.3,1.5l11.3,56.5
		c0.2,1-0.3,1.9-1.2,2.3C1578.5,1207,1578.2,1207,1578,1207z M1516.8,1159.1l35.9,1.4c0.7,0,1.3,0.4,1.6,1l19.4,32.5l-8.8-43.9
		l-23.4-7.7c-1.6-0.5-4.7-3.4-9.4-8.5c-0.3-0.3-0.5-0.7-0.5-1.2l-1-11c0-0.5,0.1-1,0.4-1.4l17.2-21.4l-17.6,11.3
		c-0.9,0.5-2,0.4-2.6-0.4l-13.6-16.6l-8.3-2.8L1516.8,1159.1z M1542.6,1138.5C1542.6,1138.5,1542.7,1138.5,1542.6,1138.5
		C1542.7,1138.5,1542.6,1138.5,1542.6,1138.5z"/>
</g>
<g>
	<rect x="1509.7" y="1162.5" class="st1" width="33" height="42"/>
	<path class="st3" d="M1542.7,1206.5h-33l-2-2v-42l2-2h33l2,2v42L1542.7,1206.5z M1511.7,1202.5h29v-38h-29V1202.5z"/>
</g>
<g>
	<rect x="1213" y="1162.5" class="st1" width="229" height="42"/>
	<path class="st3" d="M1442,1206.5h-229l-2-2v-42l2-2h229l2,2v42L1442,1206.5z M1215,1202.5h225v-38h-225V1202.5z"/>
</g>
<g>
	<g>
		<polygon class="st1" points="1705,1205.1 1688.7,1109.3 1686,1072.5 1708.9,1086.8 1725,1048.5 1704.8,1070.1 1683,1050.5 
			1670.3,1048.3 1640.2,1080.1 1636,1116.5 1647.7,1086.8 1660.2,1079.2 1649.8,1205.5 1675.3,1124.4 		"/>
		<path class="st3" d="M1651.7,1206.1l-3.9-0.8l10.1-122.4l-8.6,5.2l-11.5,29.1l-3.8-1l4.2-36.4l0.5-1.1l30.1-31.8l1.8-0.6l12.7,2.2
			l1,0.5l20.3,18.3l18.9-20.1l3.3,2.1l-16.1,38.3l-2.9,0.9l-19.6-12.2l2.4,32.8l16.3,95.6l-3.8,1l-27.7-75.2L1651.7,1206.1z
			 M1659.2,1077.5l3,1.9l-9,108.4l20.1-64l3.8-0.1l22.2,60.3l-12.7-74.5l-2.7-36.8l3.1-1.8l20.9,13l10.9-25.9l-12.7,13.5l-2.8,0.1
			l-21.3-19.2l-11.1-1.9l-28.9,30.5l-2.4,20.6l6.1-15.5l0.8-1L1659.2,1077.5z"/>
	</g>
	<g>
		<ellipse class="st1" cx="1671.8" cy="1030.2" rx="10.8" ry="12.2"/>
		<path class="st3" d="M1671.8,1044.5c-7.1,0-12.8-6.4-12.8-14.2c0-7.9,5.8-14.2,12.8-14.2s12.8,6.4,12.8,14.2
			C1684.7,1038.1,1678.9,1044.5,1671.8,1044.5z M1671.8,1020c-4.9,0-8.8,4.6-8.8,10.2c0,5.6,4,10.2,8.8,10.2s8.8-4.6,8.8-10.2
			C1680.7,1024.6,1676.7,1020,1671.8,1020z"/>
	</g>
</g>
<g>
	<path class="st1" d="M1854.7,1117.9c12.9,12.9,33.9,12.9,46.8,0c0,0,0,0,0,0c0.9-0.9,1.7-1.8,2.4-2.7l-56-34.5
		C1842.2,1093.3,1844.9,1108.1,1854.7,1117.9z"/>
	<path class="st3" d="M1878.1,1129.6c-9,0-18-3.4-24.8-10.3c-10.3-10.3-13.2-26.2-7.1-39.5l0.9-2.1l59.9,36.9l-1.4,1.8
		c-0.8,1-1.7,2-2.6,2.9C1896.1,1126.2,1887.1,1129.6,1878.1,1129.6z M1848.9,1083.6c-4.2,11.3-1.4,24.3,7.2,32.9l0,0
		c12.1,12.1,31.9,12.1,44,0c0.3-0.3,0.5-0.5,0.8-0.8L1848.9,1083.6z"/>
</g>
<g>
	<polygon class="st0" points="1269.5,1090.6 1256,1109.5 1232,1104.5 1262,1123.5 1269.5,1115.5 1269.5,1146.2 1257,1149.5 
		1280,1205.5 1280,1162.5 1292,1162.5 1292,1204.5 1307,1142.5 1299,1139.5 1298,1112.5 1320,1162.5 1299,1090.5 1283,1087.5 	"/>
	<path class="st3" d="M1280,1207.5c-0.8,0-1.5-0.5-1.8-1.2l-23-56c-0.2-0.5-0.2-1.1,0.1-1.7s0.7-0.9,1.3-1l11-2.9v-24.1l-4,4.3
		c-0.7,0.7-1.7,0.8-2.5,0.3l-30-19c-0.8-0.5-1.1-1.5-0.8-2.4c0.4-0.9,1.3-1.4,2.3-1.2l22.7,4.7l12.7-17.8c0.3-0.4,0.7-0.7,1.2-0.8
		l13.5-3.1c0.3-0.1,0.5-0.1,0.8,0l16,3c0.7,0.1,1.3,0.7,1.6,1.4l21,72c0.3,1-0.2,2.1-1.2,2.4c-1,0.4-2.1-0.1-2.5-1.1l-9.2-20.8
		c0,0.2,0,0.3-0.1,0.5l-15,62c-0.2,1-1.2,1.6-2.2,1.5c-1-0.1-1.8-1-1.8-2v-40h-8v41c0,1-0.7,1.8-1.6,2
		C1280.3,1207.5,1280.1,1207.5,1280,1207.5z M1259.7,1150.9l18.3,44.5v-32.9c0-1.1,0.9-2,2-2h12c1.1,0,2,0.9,2,2v25.2l10.6-44
		l-6.3-2.4c-0.8-0.3-1.3-1-1.3-1.8l-1-27c0-1,0.6-1.8,1.6-2c0.9-0.2,1.9,0.3,2.3,1.1l9.7,22l-12.1-41.5l-14.4-2.7l-12.4,2.9
		l-13.1,18.2c-0.5,0.6-1.3,1-2,0.8l-13.2-2.8l19.3,12.2l6.4-6.8c0.6-0.6,1.4-0.8,2.2-0.5c0.8,0.3,1.3,1,1.3,1.9v30.8
		c0,0.9-0.6,1.7-1.5,1.9L1259.7,1150.9z M1300.9,1138.1l6.8,2.5c0.3,0.1,0.5,0.2,0.7,0.4l-8-18.2L1300.9,1138.1z"/>
</g>
<g>
	<ellipse class="st1" cx="1362.8" cy="1069.2" rx="10.8" ry="12.2"/>
	<path class="st3" d="M1362.8,1083.5c-7.1,0-12.8-6.4-12.8-14.2c0-7.9,5.8-14.2,12.8-14.2s12.8,6.4,12.8,14.2
		C1375.7,1077.1,1369.9,1083.5,1362.8,1083.5z M1362.8,1059c-4.9,0-8.8,4.6-8.8,10.2c0,5.6,4,10.2,8.8,10.2s8.8-4.6,8.8-10.2
		C1371.7,1063.6,1367.7,1059,1362.8,1059z"/>
</g>
<g>
	<polygon class="st1" points="1378.5,1090.6 1392,1109.5 1416,1104.5 1386,1123.5 1378.5,1115.5 1378.5,1146.2 1391,1149.5 
		1368,1205.5 1368,1162.5 1356,1162.5 1356,1204.5 1340,1150.5 1349,1139.5 1350,1112.5 1316,1055.5 1352,1084.5 1365,1087.5 	"/>
	<path class="st3" d="M1369.8,1206.3l-3.8-0.8v-41h-8v40l-3.9,0.6l-16-54l0.4-1.8l8.6-10.5l1-25.7l-33.7-56.5l3-2.6l35.6,28.7
		l26.1,6l1.2,0.8l12.7,17.8l22.7-4.7l1.5,3.6l-30,19l-2.5-0.3l-4-4.3v24.1l11,2.9l1.3,2.7L1369.8,1206.3z M1356,1160.5h12l2,2v32.9
		l18.3-44.5l-10.3-2.7l-1.5-1.9v-30.8l3.5-1.4l6.4,6.8l19.3-12.2l-13.2,2.8l-2-0.8l-13.1-18.2l-25.8-6l-0.8-0.4l-27.3-22l28.3,47.4
		l0.3,1.1l-1,27l-0.5,1.2l-8.3,10.2l11.8,39.8v-28.2L1356,1160.5z"/>
</g>
<g>
	<path class="st0" d="M883.8,625.2c-7,0-14,1.6-20.2,4.8c-8.3-35.8-44-58-79.8-49.7c-24.4,5.7-43.5,24.5-49.5,48.8
		c-26.4-9.4-55.9-1.3-73.7,20.4H924C916.2,634.6,900.7,625.2,883.8,625.2z"/>
</g>
<g>
	<path class="st0" d="M345.3,813.7c-5.7,0-11.4,1.3-16.5,3.9c-6.8-29.1-35.9-47.2-65-40.4c-19.8,4.6-35.3,19.9-40.2,39.7
		c-21.5-7.7-45.5-1-60,16.6H378C371.6,821.3,359,813.7,345.3,813.7z"/>
</g>
<g>
	<path class="st0" d="M1839.3,202.7c-5.7,0-11.4,1.3-16.5,3.9c-6.8-29.1-35.9-47.2-65-40.4c-19.8,4.6-35.3,19.9-40.2,39.7
		c-21.5-7.7-45.5-1-60,16.6H1872C1865.6,210.3,1853,202.7,1839.3,202.7z"/>
</g>
<g>
	<path class="st0" d="M2292.6,841.4c-4.7,0-9.2,1.1-13.4,3.2c-5.4-23.7-29-38.5-52.7-33.1c-16.3,3.7-29,16.3-33,32.5
		c-17.5-6.2-37.1-0.8-48.9,13.5h174.6C2314,847.6,2303.7,841.4,2292.6,841.4z"/>
</g>
<g>
	<path class="st3" d="M688.1,1025.8l3.9-1.4c1-0.3,2,0.2,2.4,1.1l5.9,16.9c0.3,1-0.2,2-1.1,2.4l-3.9,1.4c-1,0.3-2-0.2-2.4-1.1
		l-5.9-16.9C686.7,1027.2,687.2,1026.1,688.1,1025.8z"/>
</g>
<g>
	<path class="st3" d="M995.7,1037l9.6-3.4c1.5-0.5,3.2,0.3,3.7,1.8l7,20c0.5,1.5-0.3,3.2-1.8,3.7l-9.6,3.4c-1.5,0.5-3.2-0.3-3.7-1.8
		l-7-20C993.4,1039.2,994.2,1037.6,995.7,1037z"/>
</g>
<g>
	<path class="st3" d="M274.9,1009.5h10.2c1.6,0,2.9,1.3,2.9,2.9v21.2c0,1.6-1.3,2.9-2.9,2.9h-10.2c-1.6,0-2.9-1.3-2.9-2.9v-21.2
		C272,1010.8,273.3,1009.5,274.9,1009.5z"/>
</g>
<g>
	<path class="st3" d="M1414.6,1079.7l9.9,2.7c1.5,0.4,2.4,2,2,3.6l-5.6,20.5c-0.4,1.5-2,2.4-3.6,2l-9.9-2.7c-1.5-0.4-2.4-2-2-3.6
		l5.6-20.5C1411.4,1080.2,1413,1079.3,1414.6,1079.7z"/>
</g>
<g>
	<path class="st3" d="M1558.2,1078.3l6.5,1.8c1,0.3,1.6,1.3,1.3,2.3l-3.7,13.5c-0.3,1-1.3,1.6-2.3,1.3l-6.5-1.8
		c-1-0.3-1.6-1.3-1.3-2.3l3.7-13.5C1556.1,1078.6,1557.2,1078,1558.2,1078.3z"/>
</g>
<g>
	<path class="st3" d="M1913.7,1045.2l2.2,0.6c0.7,0.2,1.2,1,1,1.7l-4,14.5c-0.2,0.7-1,1.2-1.7,1l-2.2-0.6c-0.7-0.2-1.2-1-1-1.7
		l4-14.5C1912.2,1045.4,1912.9,1045,1913.7,1045.2z"/>
</g>
<g>
	<path class="st3" d="M1711.9,1037.1l10.2,0.7c1.6,0.1,2.8,1.5,2.7,3.1l-1.5,21.2c-0.1,1.6-1.5,2.8-3.1,2.7l-10.2-0.7
		c-1.6-0.1-2.8-1.5-2.7-3.1l1.5-21.2C1709,1038.1,1710.3,1036.9,1711.9,1037.1z"/>
</g>
<g>
	<path class="st3" d="M1226.9,1086.8l8.9-1.8c1.4-0.3,2.7,0.6,3,2l3.8,18.5c0.3,1.4-0.6,2.7-2,3l-8.9,1.8c-1.4,0.3-2.7-0.6-3-2
		l-3.8-18.5C1224.6,1088.4,1225.5,1087.1,1226.9,1086.8z"/>
</g>
<g>
	<polygon class="st3" points="824.8,1144.8 812.3,1119.8 817.7,1117.2 828.2,1138.2 859.6,1133.5 860.4,1139.5 	"/>
</g>
<g>
	<g>
		<circle class="st1" cx="1682.4" cy="796.4" r="135"/>
	</g>
	<g>
		<path class="st4" d="M1683.5,933.9l0-5c1.9,0,3.9-0.1,5.8-0.2l0.3,5C1687.5,933.8,1685.5,933.9,1683.5,933.9z M1675.4,933.7
			c-2-0.1-4.1-0.2-6.1-0.4l0.5-5c1.9,0.2,3.9,0.3,5.8,0.4L1675.4,933.7z M1697.6,933.1l-0.5-5c1.9-0.2,3.9-0.5,5.8-0.8l0.8,4.9
			C1701.6,932.6,1699.6,932.8,1697.6,933.1z M1661.3,932.3c-2-0.3-4-0.7-6-1.1l1-4.9c1.9,0.4,3.8,0.7,5.8,1L1661.3,932.3z
			 M1711.6,930.8l-1.1-4.9c1.9-0.4,3.8-0.9,5.7-1.4l1.3,4.8C1715.5,929.9,1713.5,930.4,1711.6,930.8z M1647.4,929.4
			c-1.9-0.5-3.9-1.1-5.8-1.7l1.5-4.8c1.9,0.6,3.8,1.1,5.6,1.6L1647.4,929.4z M1725.2,927.1l-1.6-4.8c1.8-0.6,3.7-1.3,5.5-1.9
			l1.8,4.7C1729.1,925.8,1727.1,926.5,1725.2,927.1z M1633.9,925.1c-1.9-0.7-3.8-1.5-5.6-2.3l2-4.6c1.8,0.8,3.6,1.5,5.4,2.2
			L1633.9,925.1z M1738.4,922l-2-4.6c1.8-0.8,3.5-1.6,5.3-2.5l2.2,4.5C1742.1,920.3,1740.3,921.2,1738.4,922z M1620.9,919.4
			c-1.8-0.9-3.6-1.9-5.4-2.8l2.4-4.4c1.7,0.9,3.4,1.9,5.2,2.7L1620.9,919.4z M1751,915.6l-2.5-4.3c1.7-1,3.4-2,5-3l2.7,4.2
			C1754.5,913.5,1752.8,914.6,1751,915.6z M1608.6,912.4c-1.7-1.1-3.4-2.2-5-3.4l2.9-4.1c1.6,1.1,3.2,2.2,4.9,3.3L1608.6,912.4z
			 M1762.9,907.9l-2.9-4.1c1.6-1.1,3.1-2.3,4.7-3.5l3.1,3.9C1766.2,905.5,1764.5,906.7,1762.9,907.9z M1597.1,904.2
			c-1.6-1.3-3.2-2.6-4.7-3.9l3.3-3.8c1.5,1.3,3,2.5,4.5,3.7L1597.1,904.2z M1773.9,899l-3.3-3.7c1.5-1.3,2.9-2.6,4.3-4l3.5,3.6
			C1776.9,896.3,1775.4,897.7,1773.9,899z M1586.4,894.8c-1.4-1.4-2.9-2.9-4.2-4.3l3.6-3.4c1.3,1.4,2.7,2.8,4.1,4.2L1586.4,894.8z
			 M1784,889.1l-3.7-3.4c1.3-1.4,2.6-2.9,3.8-4.4l3.8,3.2C1786.7,886,1785.4,887.6,1784,889.1z M1576.8,884.4
			c-1.3-1.5-2.6-3.1-3.8-4.7l4-3c1.2,1.5,2.4,3.1,3.6,4.6L1576.8,884.4z M1793,878.1l-4-3c1.2-1.6,2.3-3.2,3.4-4.8l4.1,2.8
			C1795.4,874.8,1794.2,876.5,1793,878.1z M1568.3,873.1c-1.1-1.7-2.2-3.4-3.3-5.1l4.3-2.6c1,1.7,2.1,3.3,3.2,4.9L1568.3,873.1z
			 M1800.8,866.3l-4.3-2.5c1-1.7,2-3.4,2.9-5.1l4.4,2.4C1802.9,862.8,1801.9,864.6,1800.8,866.3z M1561,861
			c-0.9-1.8-1.9-3.6-2.7-5.4l4.5-2.2c0.8,1.8,1.7,3.5,2.6,5.2L1561,861z M1807.4,853.8l-4.5-2.1c0.8-1.8,1.6-3.6,2.3-5.4l4.6,1.9
			C1809.1,850.1,1808.2,851.9,1807.4,853.8z M1555,848.2c-0.8-1.9-1.5-3.8-2.2-5.7l4.7-1.7c0.7,1.8,1.4,3.7,2.1,5.5L1555,848.2z
			 M1812.7,840.6l-4.7-1.6c0.6-1.8,1.2-3.7,1.8-5.6l4.8,1.4C1813.9,836.7,1813.3,838.7,1812.7,840.6z M1550.4,834.8
			c-0.6-1.9-1.1-3.9-1.6-5.9l4.9-1.2c0.5,1.9,1,3.8,1.5,5.6L1550.4,834.8z M1816.5,827l-4.9-1.1c0.4-1.9,0.8-3.8,1.2-5.7l4.9,0.9
			C1817.4,823,1817,825,1816.5,827z M1547.1,821.1c-0.4-2-0.7-4-1-6l5-0.7c0.3,1.9,0.6,3.9,0.9,5.8L1547.1,821.1z M1818.9,813
			l-5-0.6c0.2-1.9,0.4-3.9,0.6-5.8l5,0.4C1819.4,809,1819.2,811,1818.9,813z M1545.3,807c-0.2-2-0.3-4-0.3-6.1l5-0.2
			c0.1,1.9,0.2,3.9,0.3,5.8L1545.3,807z M1819.9,798.9l-5-0.1c0-0.8,0-1.6,0-2.4c0-1.1,0-2.3,0-3.4l5-0.1c0,1.2,0,2.4,0,3.6
			C1819.9,797.2,1819.9,798.1,1819.9,798.9z M1550,793l-5-0.1c0-2,0.1-4.1,0.3-6.1l5,0.3C1550.1,789.1,1550,791.1,1550,793z
			 M1814.5,785.2c-0.2-1.9-0.4-3.9-0.6-5.8l5-0.6c0.3,2,0.5,4,0.6,6L1814.5,785.2z M1551,779.4l-5-0.6c0.3-2,0.6-4,0.9-6l4.9,0.9
			C1551.5,775.5,1551.2,777.5,1551,779.4z M1812.6,771.6c-0.4-1.9-0.8-3.8-1.2-5.7l4.9-1.1c0.5,2,0.9,4,1.3,5.9L1812.6,771.6z
			 M1553.4,766l-4.9-1.1c0.5-2,1-3.9,1.5-5.9l4.8,1.4C1554.4,762.2,1553.9,764.1,1553.4,766z M1809.4,758.4
			c-0.6-1.9-1.2-3.7-1.8-5.6l4.7-1.6c0.7,1.9,1.3,3.9,1.9,5.8L1809.4,758.4z M1557.2,752.9l-4.7-1.6c0.7-1.9,1.4-3.8,2.1-5.7
			l4.6,1.9C1558.6,749.2,1557.9,751,1557.2,752.9z M1804.8,745.6c-0.7-1.8-1.5-3.6-2.4-5.3l4.5-2.1c0.9,1.8,1.7,3.7,2.4,5.5
			L1804.8,745.6z M1562.4,740.2l-4.5-2.1c0.9-1.8,1.8-3.7,2.7-5.4l4.4,2.3C1564.1,736.7,1563.2,738.5,1562.4,740.2z M1799,733.3
			c-0.9-1.7-1.9-3.4-2.9-5.1l4.3-2.6c1,1.7,2,3.5,3,5.3L1799,733.3z M1568.8,728.2l-4.3-2.6c1-1.7,2.1-3.5,3.2-5.1l4.2,2.8
			C1570.9,724.8,1569.8,726.5,1568.8,728.2z M1791.8,721.6c-1.1-1.6-2.2-3.2-3.4-4.7l4-3c1.2,1.6,2.4,3.3,3.5,4.9L1791.8,721.6z
			 M1576.4,716.8l-4-3c1.2-1.6,2.5-3.2,3.8-4.8l3.9,3.2C1578.8,713.8,1577.6,715.3,1576.4,716.8z M1783.6,710.8
			c-1.3-1.5-2.6-3-3.9-4.4l3.7-3.4c1.4,1.5,2.7,3,4,4.5L1783.6,710.8z M1585.2,706.4l-3.7-3.4c1.4-1.5,2.8-2.9,4.2-4.4l3.5,3.6
			C1587.9,703.5,1586.5,704.9,1585.2,706.4z M1774.2,700.9c-1.4-1.3-2.9-2.7-4.3-4l3.3-3.8c1.5,1.3,3,2.7,4.5,4.1L1774.2,700.9z
			 M1595,696.8l-3.3-3.8c1.5-1.3,3.1-2.6,4.6-3.9l3.1,3.9C1597.9,694.3,1596.4,695.6,1595,696.8z M1763.9,691.9
			c-1.5-1.2-3.1-2.4-4.7-3.5l2.9-4.1c1.6,1.2,3.3,2.4,4.9,3.6L1763.9,691.9z M1605.7,688.4l-2.9-4.1c1.6-1.2,3.3-2.3,5-3.4l2.7,4.2
			C1608.9,686.1,1607.2,687.3,1605.7,688.4z M1752.8,684.1c-1.6-1-3.3-2-5-3l2.5-4.3c1.8,1,3.5,2,5.2,3.1L1752.8,684.1z M1617.1,681
			l-2.5-4.3c1.7-1,3.5-2,5.3-2.9l2.3,4.5C1620.6,679.2,1618.8,680.1,1617.1,681z M1740.8,677.4c-1.7-0.9-3.5-1.7-5.3-2.5l2-4.6
			c1.8,0.8,3.7,1.7,5.5,2.6L1740.8,677.4z M1629.3,674.9l-2-4.6c1.8-0.8,3.7-1.6,5.6-2.3l1.8,4.7
			C1632.9,673.4,1631.1,674.2,1629.3,674.9z M1728.3,672c-1.8-0.7-3.7-1.3-5.5-1.9l1.5-4.8c1.9,0.6,3.9,1.3,5.8,2L1728.3,672z
			 M1642.1,670.1l-1.5-4.8c1.9-0.6,3.9-1.2,5.8-1.7l1.3,4.8C1645.8,669,1643.9,669.5,1642.1,670.1z M1715.2,668
			c-1.9-0.5-3.8-0.9-5.7-1.3l1-4.9c2,0.4,4,0.9,5.9,1.4L1715.2,668z M1655.3,666.7l-1-4.9c2-0.4,4-0.8,6-1.1l0.8,4.9
			C1659.1,665.9,1657.2,666.3,1655.3,666.7z M1701.8,665.3c-1.9-0.3-3.9-0.5-5.8-0.7l0.5-5c2,0.2,4,0.5,6,0.7L1701.8,665.3z
			 M1668.7,664.6l-0.5-5c2-0.2,4-0.4,6-0.5l0.3,5C1672.6,664.2,1670.7,664.4,1668.7,664.6z M1688.3,664c-1.9-0.1-3.9-0.1-5.8-0.1
			l-0.1-5h0.1c2,0,4.1,0,6.1,0.1L1688.3,664z"/>
	</g>
</g>
<g>
	<g>
		<circle class="st5" cx="271.3" cy="548.6" r="135"/>
	</g>
	<g>
		<path class="st6" d="M272.4,686.1l0-5c1.9,0,3.9-0.1,5.8-0.2l0.3,5C276.4,686,274.4,686.1,272.4,686.1z M264.3,685.9
			c-2-0.1-4.1-0.2-6.1-0.4l0.5-5c1.9,0.2,3.9,0.3,5.8,0.4L264.3,685.9z M286.5,685.3l-0.5-5c1.9-0.2,3.9-0.5,5.8-0.8l0.8,4.9
			C290.5,684.8,288.5,685.1,286.5,685.3z M250.2,684.5c-2-0.3-4-0.7-6-1.1l1-4.9c1.9,0.4,3.8,0.7,5.8,1L250.2,684.5z M300.5,683
			l-1.1-4.9c1.9-0.4,3.8-0.9,5.7-1.4l1.3,4.8C304.4,682.1,302.4,682.6,300.5,683z M236.3,681.6c-1.9-0.5-3.9-1.1-5.8-1.7l1.5-4.8
			c1.9,0.6,3.7,1.1,5.6,1.6L236.3,681.6z M314.1,679.3l-1.6-4.8c1.8-0.6,3.7-1.3,5.5-1.9l1.8,4.7C318,678,316,678.7,314.1,679.3z
			 M222.8,677.3c-1.9-0.7-3.8-1.5-5.6-2.3l2-4.6c1.8,0.8,3.6,1.5,5.4,2.2L222.8,677.3z M327.3,674.2l-2-4.6c1.8-0.8,3.5-1.6,5.3-2.5
			l2.2,4.5C331,672.5,329.2,673.4,327.3,674.2z M209.8,671.6c-1.8-0.9-3.6-1.9-5.4-2.8l2.4-4.4c1.7,0.9,3.4,1.9,5.2,2.7L209.8,671.6
			z M339.9,667.8l-2.5-4.3c1.7-1,3.4-2,5-3l2.7,4.2C343.4,665.7,341.7,666.8,339.9,667.8z M197.5,664.6c-1.7-1.1-3.4-2.2-5-3.4
			l2.9-4.1c1.6,1.1,3.2,2.2,4.9,3.3L197.5,664.6z M351.8,660.1l-2.9-4.1c1.6-1.1,3.1-2.3,4.7-3.5l3.1,3.9
			C355.1,657.7,353.4,658.9,351.8,660.1z M186,656.4c-1.6-1.2-3.1-2.6-4.7-3.9l3.3-3.8c1.5,1.3,3,2.5,4.5,3.7L186,656.4z
			 M362.8,651.3l-3.3-3.7c1.4-1.3,2.9-2.6,4.3-4l3.5,3.6C365.8,648.5,364.3,649.9,362.8,651.3z M175.3,647.1
			c-1.4-1.4-2.9-2.9-4.2-4.3l3.6-3.4c1.3,1.4,2.7,2.8,4.1,4.2L175.3,647.1z M372.9,641.3l-3.7-3.4c1.3-1.4,2.6-2.9,3.8-4.4l3.8,3.2
			C375.6,638.3,374.2,639.8,372.9,641.3z M165.7,636.7c-1.3-1.5-2.6-3.1-3.8-4.7l4-3c1.2,1.5,2.4,3.1,3.6,4.6L165.7,636.7z
			 M381.9,630.4l-4-3c1.2-1.6,2.3-3.2,3.4-4.8l4.1,2.8C384.3,627.1,383.1,628.7,381.9,630.4z M157.2,625.4c-1.1-1.7-2.2-3.4-3.3-5.1
			l4.3-2.6c1,1.7,2.1,3.3,3.2,4.9L157.2,625.4z M389.7,618.6l-4.3-2.5c1-1.7,2-3.4,2.9-5.1l4.4,2.4
			C391.8,615,390.8,616.8,389.7,618.6z M149.9,613.3c-0.9-1.8-1.9-3.6-2.7-5.4l4.5-2.2c0.8,1.7,1.7,3.5,2.6,5.2L149.9,613.3z
			 M396.3,606l-4.5-2.1c0.8-1.8,1.6-3.6,2.3-5.4l4.6,1.9C398,602.3,397.2,604.2,396.3,606z M143.9,600.5c-0.8-1.9-1.5-3.8-2.2-5.7
			l4.7-1.7c0.7,1.8,1.4,3.7,2.1,5.5L143.9,600.5z M401.6,592.8l-4.7-1.6c0.6-1.8,1.2-3.7,1.8-5.6l4.8,1.4
			C402.8,589,402.2,590.9,401.6,592.8z M139.3,587.1c-0.6-1.9-1.1-3.9-1.6-5.9l4.9-1.2c0.5,1.9,1,3.8,1.5,5.6L139.3,587.1z
			 M405.4,579.2l-4.9-1.1c0.4-1.9,0.8-3.8,1.2-5.7l4.9,0.9C406.3,575.2,405.9,577.2,405.4,579.2z M136,573.3c-0.4-2-0.7-4-0.9-6
			l5-0.7c0.3,1.9,0.6,3.9,0.9,5.8L136,573.3z M407.8,565.2l-5-0.6c0.2-1.9,0.4-3.9,0.6-5.8l5,0.4
			C408.3,561.2,408.1,563.2,407.8,565.2z M134.2,559.3c-0.2-2-0.3-4-0.3-6.1l5-0.2c0.1,1.9,0.2,3.9,0.3,5.8L134.2,559.3z
			 M408.8,551.1l-5-0.1c0-0.8,0-1.6,0-2.4c0-1.1,0-2.3,0-3.4l5-0.1c0,1.2,0,2.4,0,3.6C408.8,549.5,408.8,550.3,408.8,551.1z
			 M138.9,545.2l-5-0.1c0.1-2,0.1-4.1,0.3-6.1l5,0.3C139,541.3,138.9,543.3,138.9,545.2z M403.4,537.4c-0.2-1.9-0.4-3.9-0.6-5.8
			l5-0.6c0.3,2,0.5,4,0.6,6L403.4,537.4z M139.9,531.6l-5-0.6c0.3-2,0.6-4,0.9-6l4.9,0.9C140.4,527.8,140.1,529.7,139.9,531.6z
			 M401.5,523.9c-0.4-1.9-0.8-3.8-1.2-5.7l4.9-1.1c0.5,2,0.9,4,1.3,5.9L401.5,523.9z M142.3,518.2l-4.9-1.1c0.5-2,1-3.9,1.5-5.9
			l4.8,1.4C143.3,514.4,142.8,516.3,142.3,518.2z M398.3,510.6c-0.6-1.9-1.2-3.7-1.8-5.6l4.7-1.6c0.7,1.9,1.3,3.8,1.9,5.8
			L398.3,510.6z M146.1,505.1l-4.7-1.6c0.7-1.9,1.4-3.8,2.1-5.7l4.6,1.9C147.5,501.4,146.8,503.3,146.1,505.1z M393.7,497.8
			c-0.7-1.8-1.5-3.6-2.4-5.3l4.5-2.1c0.9,1.8,1.7,3.7,2.4,5.5L393.7,497.8z M151.3,492.5l-4.5-2.1c0.9-1.8,1.8-3.7,2.7-5.4l4.4,2.3
			C153,488.9,152.1,490.7,151.3,492.5z M387.9,485.5c-0.9-1.7-1.9-3.4-2.9-5.1l4.3-2.6c1,1.7,2,3.5,3,5.3L387.9,485.5z M157.7,480.4
			l-4.3-2.6c1-1.7,2.1-3.5,3.2-5.1l4.2,2.8C159.8,477.1,158.7,478.7,157.7,480.4z M380.7,473.9c-1.1-1.6-2.2-3.2-3.4-4.7l4-3
			c1.2,1.6,2.4,3.3,3.5,4.9L380.7,473.9z M165.3,469.1l-4-3c1.2-1.6,2.5-3.2,3.8-4.8l3.9,3.2C167.7,466,166.5,467.5,165.3,469.1z
			 M372.5,463c-1.3-1.5-2.6-3-3.9-4.4l3.7-3.4c1.4,1.5,2.7,3,4,4.5L372.5,463z M174.1,458.6l-3.7-3.4c1.4-1.5,2.8-2.9,4.2-4.4
			l3.5,3.6C176.8,455.8,175.4,457.2,174.1,458.6z M363.1,453.1c-1.4-1.3-2.8-2.7-4.3-4l3.3-3.8c1.5,1.3,3,2.7,4.5,4.1L363.1,453.1z
			 M183.9,449.1l-3.3-3.8c1.5-1.3,3.1-2.6,4.6-3.9l3.1,3.9C186.8,446.5,185.3,447.8,183.9,449.1z M352.8,444.1
			c-1.5-1.2-3.1-2.4-4.7-3.5l2.9-4.1c1.6,1.2,3.3,2.4,4.9,3.6L352.8,444.1z M194.5,440.6l-2.9-4.1c1.6-1.2,3.3-2.3,5-3.4l2.7,4.2
			C197.8,438.4,196.1,439.5,194.5,440.6z M341.7,436.3c-1.7-1-3.3-2-5-3l2.5-4.3c1.7,1,3.5,2,5.2,3.1L341.7,436.3z M206,433.3
			l-2.5-4.3c1.8-1,3.5-2,5.3-2.9l2.3,4.5C209.5,431.4,207.7,432.3,206,433.3z M329.7,429.7c-1.7-0.9-3.5-1.7-5.3-2.5l2-4.6
			c1.8,0.8,3.7,1.7,5.5,2.6L329.7,429.7z M218.2,427.2l-2-4.6c1.8-0.8,3.7-1.6,5.6-2.3l1.8,4.7C221.8,425.7,220,426.4,218.2,427.2z
			 M317.2,424.3c-1.8-0.7-3.7-1.3-5.5-1.9l1.5-4.8c1.9,0.6,3.9,1.3,5.8,2L317.2,424.3z M231,422.4l-1.5-4.8c1.9-0.6,3.9-1.2,5.8-1.7
			l1.3,4.8C234.7,421.2,232.8,421.8,231,422.4z M304.1,420.2c-1.9-0.5-3.8-0.9-5.7-1.3l1-4.9c2,0.4,4,0.9,5.9,1.4L304.1,420.2z
			 M244.2,418.9l-1-4.9c2-0.4,4-0.8,6-1.1l0.8,4.9C248,418.2,246.1,418.5,244.2,418.9z M290.7,417.5c-1.9-0.3-3.9-0.5-5.8-0.7l0.5-5
			c2,0.2,4,0.5,6,0.7L290.7,417.5z M257.6,416.8l-0.5-5c2-0.2,4-0.4,6-0.5l0.3,5C261.5,416.5,259.6,416.6,257.6,416.8z M277.2,416.2
			c-1.9-0.1-3.9-0.1-5.8-0.1l-0.1-5h0.1c2,0,4.1,0,6.1,0.1L277.2,416.2z"/>
	</g>
</g>
<g>
	<path class="st6" d="M282.5,983.5h-5v-6h5V983.5z M282.5,969.5h-5v-6h5V969.5z M282.5,955.5h-5v-6h5V955.5z M282.5,941.5h-5v-6h5
		V941.5z M282.5,927.5h-5v-6h5V927.5z M282.5,913.5h-5v-6h5V913.5z M282.5,899.5h-5v-6h5V899.5z M282.5,885.5h-5v-6h5V885.5z
		 M282.5,871.5h-5v-6h5V871.5z M282.5,857.5h-5v-6h5V857.5z M282.5,843.5h-5v-6h5V843.5z M282.5,829.5h-5v-6h5V829.5z M282.5,815.5
		h-5v-6h5V815.5z M282.5,801.5h-5v-6h5V801.5z M282.5,787.5h-5v-6h5V787.5z M282.5,773.5h-5v-6h5V773.5z M282.5,759.5h-5v-6h5V759.5
		z M282.5,745.5h-5v-6h5V745.5z M282.5,731.5h-5v-6h5V731.5z M282.5,717.5h-5v-6h5V717.5z"/>
</g>
<g>
	<path class="st2" d="M1007,999h-5v-6h5V999z M1007,985h-5v-6h5V985z M1007,971h-5v-6h5V971z M1007,957h-5v-6h5V957z M1007,943h-5
		v-6h5V943z M1007,929h-5v-6h5V929z M1007,915h-5v-6h5V915z M1007,901h-5v-6h5V901z M1007,887h-5v-6h5V887z M1007,873h-5v-6h5V873z
		 M1007,859h-5v-6h5V859z M1007,845h-5v-6h5V845z M1007,831h-5v-6h5V831z M1001.5,822.5h-6v-5h6V822.5z M987.5,822.5h-6v-5h6V822.5z
		 M973.5,822.5h-6v-5h6V822.5z M959.5,822.5h-6v-5h6V822.5z M945.5,822.5h-6v-5h6V822.5z M931.5,822.5h-6v-5h6V822.5z M917.5,822.5
		h-6v-5h6V822.5z M903.5,822.5h-6v-5h6V822.5z M889.5,822.5h-6v-5h6V822.5z M875.5,822.5h-6v-5h6V822.5z M861.5,822.5h-6v-5h6V822.5
		z M847.5,822.5h-6v-5h6V822.5z M833.5,822.5h-6v-5h6V822.5z M819.5,822.5h-6v-5h6V822.5z M805.5,822.5h-6v-5h6V822.5z"/>
</g>
<g>
	<path class="st4" d="M1418,1067h-5v-6h5V1067z M1418,1053h-5v-6h5V1053z M1418,1039h-5v-6h5V1039z M1418,1025h-5v-6h5V1025z
		 M1418,1011h-5v-6h5V1011z M1418,997h-5v-6h5V997z M1418,983h-5v-6h5V983z M1418,969h-5v-6h5V969z M1418,955h-5v-6h5V955z
		 M1418,941h-5v-6h5V941z M1418,927h-5v-6h5V927z M1418,913h-5v-6h5V913z M1418,899h-5v-6h5V899z M1418,885h-5v-6h5V885z M1418,871
		h-5v-6h5V871z M1418,857h-5v-6h5V857z M1418,843h-5v-6h5V843z M1418,829h-5v-6h5V829z M1418,815h-5v-6h5V815z M1418,801h-5v-7.5
		h3.5v2.5h1.5V801z M1524.5,798.5h-2v-5h2V798.5z M1514.5,798.5h-6v-5h6V798.5z M1500.5,798.5h-6v-5h6V798.5z M1486.5,798.5h-6v-5h6
		V798.5z M1472.5,798.5h-6v-5h6V798.5z M1458.5,798.5h-6v-5h6V798.5z M1444.5,798.5h-6v-5h6V798.5z M1430.5,798.5h-6v-5h6V798.5z"/>
</g>
<g>
	<path class="st6" d="M1236,1067h-5v-6h5V1067z M1236,1053h-5v-6h5V1053z M1236,1039h-5v-6h5V1039z M1236,1025h-5v-6h5V1025z
		 M1236,1011h-5v-6h5V1011z M1236,997h-5v-6h5V997z M1236,983h-5v-6h5V983z M1236,969h-5v-6h5V969z M1236,955h-5v-6h5V955z
		 M1236,941h-5v-6h5V941z M1236,927h-5v-6h5V927z M1236,913h-5v-6h5V913z M1236,899h-5v-6h5V899z M1236,885h-5v-6h5V885z M1236,871
		h-5v-6h5V871z M1236,857h-5v-6h5V857z M1236,843h-5v-6h5V843z M1236,829h-5v-6h5V829z M1236,815h-5v-6h5V815z M1236,801h-5v-6h5
		V801z M1236,787h-5v-6h5V787z M1236,773h-5v-6h5V773z M1236,759h-5v-6h5V759z M1236,745h-5v-6h5V745z M1236,731h-5v-6h5V731z
		 M1236,717h-5v-6h5V717z M1236,703h-5v-6h5V703z M1236,689h-5v-6h5V689z M1236,675h-5v-6h5V675z M1236,661h-5v-6h5V661z M1236,647
		h-5v-6h5V647z M1236,633h-5v-6h5V633z M1236,619h-5v-6h5V619z M1236,605h-5v-6h5V605z M1236,591h-5v-6h5V591z M1236,577h-5v-6h5
		V577z M1236,563h-5v-6h5V563z M1236,549h-5v-6h5V549z M1236,535h-5v-6h5V535z M1236,521h-5v-6h5V521z M1236,507h-6v-5h6V507z
		 M1222,507h-6v-5h6V507z M1208,507h-6v-5h6V507z M1194,507h-6v-5h6V507z M1180,507h-6v-5h6V507z M1166,507h-6v-5h6V507z M1152,507
		h-6v-5h6V507z M1138,507h-6v-5h6V507z M1124,507h-6v-5h6V507z M1110,507h-6v-5h6V507z M1096,507h-6v-5h6V507z M1082,507h-6v-5h6
		V507z M1068,507h-6v-5h6V507z M1054,507h-6v-5h6V507z M1040,507h-6v-5h6V507z M1026,507h-6v-5h6V507z M1012,507h-6v-5h6V507z
		 M998,507h-6v-5h6V507z M984,507h-6v-5h6V507z M970,507h-6v-5h6V507z M956,507h-6v-5h6V507z M942,507h-6v-5h6V507z M928,507h-6v-5
		h6V507z M914,507h-6v-5h6V507z M900,507h-6v-5h6V507z M886,507h-6v-5h6V507z M872,507h-6v-5h6V507z M858,507h-6v-5h6V507z M844,507
		h-6v-5h6V507z M830,507h-6v-5h6V507z M816,507h-6v-5h6V507z M802,507h-6v-5h6V507z M788,507h-6v-5h6V507z M774,507h-6v-5h6V507z
		 M760,507h-6v-5h6V507z M746,507h-6v-5h6V507z M732,507h-6v-5h6V507z M718,507h-6v-5h6V507z M704,507h-6v-5h6V507z M690,507h-6v-5
		h6V507z M676,507h-6v-5h6V507z M662,507h-6v-5h6V507z M648,507h-6v-5h6V507z M634,507h-6v-5h6V507z M620,507h-6v-5h6V507z M606,507
		h-6v-5h6V507z M592,507h-6v-5h6V507z M578,507h-6v-5h6V507z M564,507h-6v-5h6V507z M550,507h-6v-5h6V507z M536,507h-6v-5h6V507z
		 M522,507h-6v-5h6V507z M508,507h-6v-5h6V507z M494,507h-6v-5h6V507z M480,507h-6v-5h6V507z M466,507h-6v-5h6V507z M452,507h-6v-5
		h6V507z M438,507h-6v-5h6V507z"/>
</g>
<g>
	<path class="st4" d="M834,1104h-5v-6h5V1104z M834,1090h-5v-6h5V1090z M834,1076h-5v-6h5V1076z M834,1062h-5v-6h5V1062z M834,1048
		h-5v-6h5V1048z M834,1034h-5v-6h5V1034z M834,1020h-5v-6h5V1020z M834,1006h-5v-6h5V1006z M834,992h-5v-6h5V992z M834,978h-5v-6h5
		V978z M834,964h-5v-6h5V964z M834,950h-5v-6h5V950z M834,936h-5v-6h5V936z M834,922h-5v-6h5V922z M834,908h-5v-6h5V908z M834,894
		h-5v-6h5V894z M834,880h-5v-6h5V880z M834,866h-5v-6h5V866z M834,852h-5v-6h5V852z M1540.5,848h-1.5v-5h1.5V848z M1531,848h-6v-5h6
		V848z M1517,848h-6v-5h6V848z M1503,848h-6v-5h6V848z M1489,848h-6v-5h6V848z M1475,848h-6v-5h6V848z M1461,848h-6v-5h6V848z
		 M1447,848h-6v-5h6V848z M1433,848h-6v-5h6V848z M1419,848h-6v-5h6V848z M1405,848h-6v-5h6V848z M1391,848h-6v-5h6V848z M1377,848
		h-6v-5h6V848z M1363,848h-6v-5h6V848z M1349,848h-6v-5h6V848z M1335,848h-6v-5h6V848z M1321,848h-6v-5h6V848z M1307,848h-6v-5h6
		V848z M1293,848h-6v-5h6V848z M1279,848h-6v-5h6V848z M1265,848h-6v-5h6V848z M1251,848h-6v-5h6V848z M1237,848h-6v-5h6V848z
		 M1223,848h-6v-5h6V848z M1209,848h-6v-5h6V848z M1195,848h-6v-5h6V848z M1181,848h-6v-5h6V848z M1167,848h-6v-5h6V848z M1153,848
		h-6v-5h6V848z M1139,848h-6v-5h6V848z M1125,848h-6v-5h6V848z M1111,848h-6v-5h6V848z M1097,848h-6v-5h6V848z M1083,848h-6v-5h6
		V848z M1069,848h-6v-5h6V848z M1055,848h-6v-5h6V848z M1041,848h-6v-5h6V848z M1027,848h-6v-5h6V848z M1013,848h-6v-5h6V848z
		 M999,848h-6v-5h6V848z M985,848h-6v-5h6V848z M971,848h-6v-5h6V848z M957,848h-6v-5h6V848z M943,848h-6v-5h6V848z M929,848h-6v-5
		h6V848z M915,848h-6v-5h6V848z M901,848h-6v-5h6V848z M887,848h-6v-5h6V848z M873,848h-6v-5h6V848z M859,848h-6v-5h6V848z M845,848
		h-6v-5h6V848z"/>
</g>
<g>
	<path class="st6" d="M1915,1025h-5v-6h5V1025z M1915,1011h-5v-6h5V1011z M1915,997h-5v-6h5V997z M1915,983h-5v-6h5V983z M1915,969
		h-5v-6h5V969z M1915,955h-5v-6h5V955z M1915,941h-5v-6h5V941z M1915,927h-5v-6h5V927z M1915,913h-5v-6h5V913z M1915,899h-5v-6h5
		V899z M1915,885h-5v-6h5V885z M1915,871h-5v-6h5V871z M1915,857h-5v-6h5V857z M1915,843h-5v-6h5V843z M1915,829h-5v-6h5V829z
		 M1915,815h-5v-6h5V815z M1915,801h-5v-6h5V801z M1915,787h-5v-6h5V787z M1915,773h-5v-6h5V773z M1915,759h-5v-6h5V759z M1915,745
		h-5v-6h5V745z M1915,731h-5v-6h5V731z M1915,717h-5v-6h5V717z M1915,703h-5v-6h5V703z M1915,689h-5v-6h5V689z M1915,675h-5v-6h5
		V675z M1915,661h-5v-6h5V661z M1915,647h-5v-6h5V647z M1915,633h-5v-6h5V633z M1915,619h-5v-6h5V619z M1915,605h-5v-6h5V605z
		 M1915,591h-5v-6h5V591z M1915,577h-5v-6h5V577z M1907,571h-6v-5h6V571z M1893,571h-6v-5h6V571z M1879,571h-6v-5h6V571z M1865,571
		h-6v-5h6V571z M1851,571h-6v-5h6V571z M1837,571h-6v-5h6V571z M1823,571h-6v-5h6V571z M1809,571h-6v-5h6V571z M1795,571h-6v-5h6
		V571z M1781,571h-6v-5h6V571z M1767,571h-6v-5h6V571z M1753,571h-6v-5h6V571z M1739,571h-6v-5h6V571z M1725,571h-6v-5h6V571z
		 M1711,571h-6v-5h6V571z M1697,571h-6v-5h6V571z M1683,571h-6v-5h6V571z M1669,571h-6v-5h6V571z M1655,571h-6v-5h6V571z M1641,571
		h-6v-5h6V571z M1627,571h-6v-5h6V571z M1613,571h-6v-5h6V571z M1599,571h-6v-5h6V571z M1585,571h-6v-5h6V571z M1571,571h-6v-5h6
		V571z M1557,571h-6v-5h6V571z M1543,571h-6v-5h6V571z M1529,571h-6v-5h6V571z M1515,571h-6v-5h6V571z M1501,571h-6v-5h6V571z
		 M1487,571h-6v-5h6V571z M1473,571h-6v-5h6V571z M1459,571h-6v-5h6V571z M1445,571h-6v-5h6V571z M1431,571h-6v-5h6V571z M1417,571
		h-6v-5h6V571z M1403,571h-6v-5h6V571z M1389,571h-6v-5h6V571z M1375,571h-6v-5h6V571z M1361,571h-6v-5h6V571z M1347,571h-6v-5h6
		V571z M1333,571h-6v-5h6V571z M1319,571h-6v-5h6V571z M1305,571h-6v-5h6V571z M1291,571h-6v-5h6V571z M1277,571h-6v-5h6V571z
		 M1263,571h-6v-5h6V571z M1249,571h-6v-5h6V571z M1235,571h-6v-5h6V571z M1221,571h-6v-5h6V571z M1207,571h-6v-5h6V571z M1193,571
		h-6v-5h6V571z M1179,571h-6v-5h6V571z M1165,571h-6v-5h6V571z M1151,571h-6v-5h6V571z M1137,571h-6v-5h6V571z M1123,571h-6v-5h6
		V571z M1109,571h-6v-5h6V571z M1095,571h-6v-5h6V571z M1081,571h-6v-5h6V571z M1067,571h-6v-5h6V571z M1053,571h-6v-5h6V571z
		 M1039,571h-6v-5h6V571z M1025,571h-6v-5h6V571z M1011,571h-6v-5h6V571z M997,571h-6v-5h6V571z M983,571h-6v-5h6V571z M969,571h-6
		v-5h6V571z M955,571h-6v-5h6V571z M941,571h-6v-5h6V571z M927,571h-6v-5h6V571z M913,571h-6v-5h6V571z M899,571h-6v-5h6V571z
		 M885,571h-6v-5h6V571z M871,571h-6v-5h6V571z M857,571h-6v-5h6V571z M843,571h-6v-5h6V571z M829,571h-6v-5h6V571z M815,571h-6v-5
		h6V571z M801,571h-6v-5h6V571z M787,571h-6v-5h6V571z M773,571h-6v-5h6V571z M759,571h-6v-5h6V571z M745,571h-6v-5h6V571z M731,571
		h-6v-5h6V571z M717,571h-6v-5h6V571z M703,571h-6v-5h6V571z M689,571h-6v-5h6V571z M675,571h-6v-5h6V571z M661,571h-6v-5h6V571z
		 M647,571h-6v-5h6V571z M633,571h-6v-5h6V571z M619,571h-6v-5h6V571z M605,571h-6v-5h6V571z M591,571h-6v-5h6V571z M577,571h-6v-5
		h6V571z M563,571h-6v-5h6V571z M549,571h-6v-5h6V571z M535,571h-6v-5h6V571z M521,571h-6v-5h6V571z M507,571h-6v-5h6V571z M493,571
		h-6v-5h6V571z M479,571h-6v-5h6V571z M465,571h-6v-5h6V571z M451,571h-6v-5h6V571z M437,571h-6v-5h6V571z"/>
</g>
<g>
	<path class="st2" d="M711,999h-5v-6h5V999z M711,985h-5v-6h5V985z M711,971h-5v-6h5V971z M711,957h-5v-6h5V957z M711,943h-5v-6h5
		V943z M711,929h-5v-6h5V929z M711,915h-5v-1h5V915z"/>
</g>
<g>
	<path class="st2" d="M1562,1063h-5v-6h5V1063z M1562,1049h-5v-6h5V1049z M1562,1035h-5v-6h5V1035z M1562,1021h-5v-6h5V1021z
		 M1562,1007h-5v-6h5V1007z M1562,993h-5v-6h5V993z M1555.5,985.5h-6v-5h6V985.5z M1541.5,985.5h-6v-5h6V985.5z M1527.5,985.5h-6v-5
		h6V985.5z M1513.5,985.5h-6v-5h6V985.5z M1499.5,985.5h-6v-5h6V985.5z M1485.5,985.5h-6v-5h6V985.5z M1471.5,985.5h-6v-5h6V985.5z
		 M1457.5,985.5h-6v-5h6V985.5z M1443.5,985.5h-6v-5h6V985.5z M1429.5,985.5h-6v-5h6V985.5z M1415.5,985.5h-6v-5h6V985.5z
		 M1401.5,985.5h-6v-5h6V985.5z M1387.5,985.5h-6v-5h6V985.5z M1373.5,985.5h-6v-5h6V985.5z M1359.5,985.5h-6v-5h6V985.5z
		 M1345.5,985.5h-6v-5h6V985.5z M1331.5,985.5h-6v-5h6V985.5z M1317.5,985.5h-6v-5h6V985.5z M1303.5,985.5h-6v-5h6V985.5z
		 M1289.5,985.5h-6v-5h6V985.5z M1275.5,985.5h-6v-5h6V985.5z M1261.5,985.5h-6v-5h6V985.5z M1247.5,985.5h-6v-5h6V985.5z
		 M1233.5,985.5h-6v-5h6V985.5z M1219.5,985.5h-6v-5h6V985.5z M1205.5,985.5h-6v-5h6V985.5z M1191.5,985.5h-6v-5h6V985.5z
		 M1177.5,985.5h-6v-5h6V985.5z M1163.5,985.5h-6v-5h6V985.5z M1149.5,985.5h-6v-5h6V985.5z M1135.5,985.5h-6v-5h6V985.5z
		 M1121.5,985.5h-6v-5h6V985.5z M1107.5,985.5h-6v-5h6V985.5z M1093.5,985.5h-6v-5h6V985.5z M1079.5,985.5h-6.5V981h2.5v-0.5h4
		V985.5z M1078,973h-5v-6h5V973z M1078,959h-5v-6h5V959z M1078,945h-5v-6h5V945z M1078,931h-5v-6h5V931z M1078,917h-5v-6h5V917z
		 M1078,903h-5v-6h5V903z M1078,889h-5v-6h5V889z M1078,875h-5v-6h5V875z M1078,861h-5v-6h5V861z M1078,847h-5v-6h5V847z M1078,833
		h-5v-6h5V833z M1078,819h-5v-6h5V819z M1078,805h-5v-6h5V805z M1078,791h-5v-6h5V791z M1078,777h-5v-6h5V777z M1078,763h-5v-6h5
		V763z M1073.5,753.5h-6v-5h6V753.5z M1059.5,753.5h-6v-5h6V753.5z M1045.5,753.5h-6v-5h6V753.5z M1031.5,753.5h-6v-5h6V753.5z
		 M1017.5,753.5h-6v-5h6V753.5z M1003.5,753.5h-6v-5h6V753.5z M989.5,753.5h-6v-5h6V753.5z M975.5,753.5h-6v-5h6V753.5z
		 M961.5,753.5h-6v-5h6V753.5z M947.5,753.5h-6v-5h6V753.5z M933.5,753.5h-6v-5h6V753.5z M919.5,753.5h-6v-5h6V753.5z M905.5,753.5
		h-6v-5h6V753.5z M891.5,753.5h-6v-5h6V753.5z M877.5,753.5h-6v-5h6V753.5z M863.5,753.5h-6v-5h6V753.5z M849.5,753.5h-6v-5h6V753.5
		z M835.5,753.5h-6v-5h6V753.5z M821.5,753.5h-6v-5h6V753.5z M807.5,753.5h-6v-5h6V753.5z M793.5,753.5h-6v-5h6V753.5z"/>
</g>
<g>
	<path class="st4" d="M1668.5,1006.5h-5v-6h5V1006.5z M1668.5,992.5h-5v-6h5V992.5z M1668.5,978.5h-5v-6h5V978.5z M1668.5,964.5h-5
		v-6h5V964.5z M1668.5,950.5h-5v-6h5V950.5z"/>
</g>
<g>
	<path class="st6" d="M902,450h-6v-5h6V450z M888,450h-6v-5h6V450z M874,450h-6v-5h6V450z M860,450h-6v-5h6V450z M846,450h-6v-5h6
		V450z M832,450h-6v-5h6V450z M818,450h-6v-5h6V450z M804,450h-6v-5h6V450z M790,450h-6v-5h6V450z M776,450h-6v-5h6V450z M762,450
		h-6v-5h6V450z M748,450h-6v-5h6V450z M734,450h-6v-5h6V450z M720,450h-6v-5h6V450z M706,450h-6v-5h6V450z M692,450h-6v-5h6V450z
		 M678,450h-6v-5h6V450z M664,450h-6v-5h6V450z M650,450h-6v-5h6V450z M636,450h-6v-5h6V450z M622,450h-6v-5h6V450z M608,450h-6v-5
		h6V450z M594,450h-6v-5h6V450z M580,450h-6v-5h6V450z M566,450h-6v-5h6V450z M552,450h-6v-5h6V450z M538,450h-6v-5h6V450z M524,450
		h-6v-5h6V450z M510,450h-6v-5h6V450z M496,450h-6v-5h6V450z M482,450h-6v-5h6V450z M468,450h-6v-5h6V450z M454,450h-6v-5h6V450z
		 M440,450h-6v-5h6V450z M426,450h-6v-5h6V450z M412,450h-6v-5h6V450z M906.5,441.5h-5v-6h5V441.5z M906.5,427.5h-5v-6h5V427.5z
		 M906.5,413.5h-5v-6h5V413.5z M906.5,399.5h-5v-6h5V399.5z M906.5,385.5h-5v-6h5V385.5z M906.5,371.5h-5v-6h5V371.5z M906.5,357.5
		h-5v-6h5V357.5z M906.5,343.5h-5v-6h5V343.5z M906.5,329.5h-5v-6h5V329.5z M906.5,315.5h-5v-6h5V315.5z M906.5,301.5h-5v-6h5V301.5
		z M906.5,287.5h-5v-6h5V287.5z M906.5,273.5h-5v-6h5V273.5z"/>
</g>
<g>
	<g>
		<polygon class="st1" points="999.2,1551.1 907,1551.1 814.9,1551.1 814.9,1442.7 999.2,1442.7 		"/>
		<path class="st2" d="M1001.2,1553.1H812.9v-112.4h188.3V1553.1z M816.9,1549.1h180.3v-104.4H816.9V1549.1z"/>
	</g>
	<g>
		<path class="st2" d="M1022.9,1572.8h-4v-135.5c0-7.9-6.4-14.3-14.3-14.3H809.5c-7.9,0-14.3,6.4-14.3,14.3v135.5h-4v-135.5
			c0-10.1,8.2-18.2,18.3-18.2h195.1c10.1,0,18.3,8.2,18.3,18.3V1572.8z"/>
	</g>
	<g>
		<path class="st1" d="M934.1,1572.8v10.8h-54.2v-10.8h-97.6v21.7c0,6,4.9,10.8,10.8,10.8h227.7c6,0,10.8-4.9,10.8-10.8v-21.7H934.1
			z"/>
		<path class="st2" d="M1020.9,1607.3H793.2c-7.1,0-12.8-5.8-12.8-12.8v-23.7h101.6v10.8h50.2v-10.8h101.6v23.7
			C1033.7,1601.5,1027.9,1607.3,1020.9,1607.3z M784.4,1574.8v19.7c0,4.9,4,8.8,8.8,8.8h227.7c4.9,0,8.8-4,8.8-8.8v-19.7h-93.6v10.8
			h-58.2v-10.8H784.4z"/>
	</g>
</g>
<g>
	<g>
		<path class="st1" d="M624.7,1561.6c0,10.7-8.2,19.3-18.3,19.3H362.8c-10.1,0-18.3-8.7-18.3-19.3V1381c0-10.7,8.2-19.3,18.3-19.3
			h243.7c10.1,0,18.3,8.7,18.3,19.3V1561.6z"/>
		<path class="st2" d="M606.4,1582.9H362.8c-11.2,0-20.3-9.6-20.3-21.3V1381c0-11.8,9.1-21.3,20.3-21.3h243.7
			c11.2,0,20.3,9.6,20.3,21.3v180.6C626.7,1573.3,617.6,1582.9,606.4,1582.9z M362.8,1363.7c-9,0-16.3,7.8-16.3,17.3v180.6
			c0,9.6,7.3,17.3,16.3,17.3h243.7c9,0,16.3-7.8,16.3-17.3V1381c0-9.6-7.3-17.3-16.3-17.3H362.8z"/>
	</g>
	<g>
		<rect x="399.3" y="1603.3" class="st2" width="170.6" height="4"/>
	</g>
	<g>
		<rect x="482.6" y="1580.9" class="st2" width="4" height="24.4"/>
	</g>
	<g>
		<circle class="st1" cx="484.6" cy="1556.6" r="6.1"/>
		<path class="st2" d="M484.6,1564.6c-4.5,0-8.1-3.6-8.1-8.1s3.6-8.1,8.1-8.1s8.1,3.6,8.1,8.1S489.1,1564.6,484.6,1564.6z
			 M484.6,1552.5c-2.3,0-4.1,1.8-4.1,4.1s1.8,4.1,4.1,4.1s4.1-1.8,4.1-4.1S486.9,1552.5,484.6,1552.5z"/>
	</g>
	<g>
		<rect x="344.5" y="1530.2" class="st2" width="280.2" height="4"/>
	</g>
</g>
<g>
	<g>
		<path class="st1" d="M1950,1579.8c0,14.1-11.4,25.5-25.5,25.5h-76.6c-14.1,0-25.5-11.4-25.5-25.5v-136.1c0-18.8,15.2-34,34-34
			h59.6c18.8,0,34,15.2,34,34V1579.8z"/>
		<path class="st2" d="M1924.5,1607.3h-76.6c-15.2,0-27.5-12.4-27.5-27.5v-136.1c0-19.9,16.1-36,36-36h59.6c19.9,0,36,16.1,36,36
			v136.1C1952,1594.9,1939.6,1607.3,1924.5,1607.3z M1856.4,1411.6c-17.6,0-32,14.4-32,32v136.1c0,13,10.6,23.5,23.5,23.5h76.6
			c13,0,23.5-10.6,23.5-23.5v-136.1c0-17.6-14.4-32-32-32H1856.4z"/>
	</g>
	<g>
		<rect x="1839.4" y="1443.6" class="st1" width="93.6" height="76.6"/>
		<path class="st2" d="M1935,1522.2h-97.6v-80.6h97.6V1522.2z M1841.4,1518.2h89.6v-72.6h-89.6V1518.2z"/>
	</g>
	<g>
		<rect x="1864.9" y="1424.6" class="st2" width="42.5" height="4"/>
	</g>
	<g>
		<polygon class="st1" points="1864.9,1541.5 1856.4,1541.5 1856.4,1550 1864.9,1550 1864.9,1541.5 		"/>
		<path class="st2" d="M1866.9,1552h-12.5v-12.5h12.5V1552z M1858.4,1548h4.5v-4.5h-4.5V1548z"/>
	</g>
	<g>
		<polygon class="st1" points="1890.4,1541.5 1881.9,1541.5 1881.9,1550 1890.4,1550 1890.4,1541.5 		"/>
		<path class="st2" d="M1892.4,1552h-12.5v-12.5h12.5V1552z M1883.9,1548h4.5v-4.5h-4.5V1548z"/>
	</g>
	<g>
		<polygon class="st1" points="1916,1541.5 1907.5,1541.5 1907.5,1550 1916,1550 1916,1541.5 		"/>
		<path class="st2" d="M1918,1552h-12.5v-12.5h12.5V1552z M1909.5,1548h4.5v-4.5h-4.5V1548z"/>
	</g>
	<g>
		<polygon class="st1" points="1864.9,1558.5 1856.4,1558.5 1856.4,1567 1864.9,1567 1864.9,1558.5 		"/>
		<path class="st2" d="M1866.9,1569h-12.5v-12.5h12.5V1569z M1858.4,1565h4.5v-4.5h-4.5V1565z"/>
	</g>
	<g>
		<polygon class="st1" points="1890.4,1558.5 1881.9,1558.5 1881.9,1567 1890.4,1567 1890.4,1558.5 		"/>
		<path class="st2" d="M1892.4,1569h-12.5v-12.5h12.5V1569z M1883.9,1565h4.5v-4.5h-4.5V1565z"/>
	</g>
	<g>
		<polygon class="st1" points="1916,1558.5 1907.5,1558.5 1907.5,1567 1916,1567 1916,1558.5 		"/>
		<path class="st2" d="M1918,1569h-12.5v-12.5h12.5V1569z M1909.5,1565h4.5v-4.5h-4.5V1565z"/>
	</g>
	<g>
		<polygon class="st1" points="1864.9,1575.5 1856.4,1575.5 1856.4,1584 1864.9,1584 1864.9,1575.5 		"/>
		<path class="st2" d="M1866.9,1586h-12.5v-12.5h12.5V1586z M1858.4,1582h4.5v-4.5h-4.5V1582z"/>
	</g>
	<g>
		<polygon class="st1" points="1890.4,1575.5 1881.9,1575.5 1881.9,1584 1890.4,1584 1890.4,1575.5 		"/>
		<path class="st2" d="M1892.4,1586h-12.5v-12.5h12.5V1586z M1883.9,1582h4.5v-4.5h-4.5V1582z"/>
	</g>
	<g>
		<polygon class="st1" points="1916,1575.5 1907.5,1575.5 1907.5,1584 1916,1584 1916,1575.5 		"/>
		<path class="st2" d="M1918,1586h-12.5v-12.5h12.5V1586z M1909.5,1582h4.5v-4.5h-4.5V1582z"/>
	</g>
</g>
<g>
	<g>
		<path class="st1" d="M1533,1409.6h93.6c9.4,0,17,7.6,17,17v161.7c0,9.4-7.6,17-17,17H1533c-9.4,0-17-7.6-17-17v-161.7
			C1516,1417.2,1523.6,1409.6,1533,1409.6z"/>
		<path class="st2" d="M1626.6,1607.3H1533c-10.5,0-19-8.5-19-19v-161.6c0-10.5,8.5-19,19-19h93.6c10.5,0,19,8.5,19,19v161.6
			C1645.6,1598.7,1637.1,1607.3,1626.6,1607.3z M1533,1411.6c-8.3,0-15,6.7-15,15v161.6c0,8.3,6.7,15,15,15h93.6c8.3,0,15-6.7,15-15
			v-161.6c0-8.3-6.7-15-15-15H1533z"/>
	</g>
	<g>
		<rect x="1516" y="1441.6" class="st2" width="127.6" height="4"/>
	</g>
	<g>
		<rect x="1516" y="1569.2" class="st2" width="127.6" height="4"/>
	</g>
	<g>
		<path class="st1" d="M1579.8,1579.8c-4.7,0-8.5,3.8-8.5,8.5s3.8,8.5,8.5,8.5s8.5-3.8,8.5-8.5S1584.5,1579.8,1579.8,1579.8
			L1579.8,1579.8z"/>
		<path class="st2" d="M1579.8,1598.8c-5.8,0-10.5-4.7-10.5-10.5c0-5.8,4.7-10.5,10.5-10.5c5.8,0,10.5,4.7,10.5,10.5
			C1590.3,1594.1,1585.6,1598.8,1579.8,1598.8z M1579.8,1581.8c-3.6,0-6.5,2.9-6.5,6.5s2.9,6.5,6.5,6.5s6.5-2.9,6.5-6.5
			S1583.4,1581.8,1579.8,1581.8z"/>
	</g>
	<g>
		<rect x="1558.5" y="1424.6" class="st2" width="42.5" height="4"/>
	</g>
</g>
<g>
	<g>
		<path class="st1" d="M1205.5,1409.6h110.6c9.4,0,17,7.6,17,17v161.7c0,9.4-7.6,17-17,17h-110.6c-9.4,0-17-7.6-17-17v-161.7
			C1188.5,1417.2,1196.1,1409.6,1205.5,1409.6z"/>
		<path class="st2" d="M1316.1,1607.3h-110.6c-10.5,0-19-8.5-19-19v-161.6c0-10.5,8.5-19,19-19h110.6c10.5,0,19,8.5,19,19v161.6
			C1335.1,1598.7,1326.6,1607.3,1316.1,1607.3z M1205.5,1411.6c-8.3,0-15,6.7-15,15v161.6c0,8.3,6.7,15,15,15h110.6
			c8.3,0,15-6.7,15-15v-161.6c0-8.3-6.7-15-15-15H1205.5z"/>
	</g>
	<g>
		<path class="st1" d="M1260.8,1579.8c-4.7,0-8.5,3.8-8.5,8.5s3.8,8.5,8.5,8.5s8.5-3.8,8.5-8.5
			C1269.3,1583.6,1265.5,1579.8,1260.8,1579.8C1260.8,1579.8,1260.8,1579.8,1260.8,1579.8z"/>
		<path class="st2" d="M1260.8,1598.8c-5.8,0-10.5-4.7-10.5-10.5c0-5.8,4.7-10.5,10.5-10.5h0c5.8,0,10.5,4.7,10.5,10.5
			C1271.3,1594.1,1266.6,1598.8,1260.8,1598.8z M1260.8,1579.8v2c-3.6,0-6.5,2.9-6.5,6.5s2.9,6.5,6.5,6.5s6.5-2.9,6.5-6.5
			c0-3.6-2.9-6.5-6.5-6.5L1260.8,1579.8z"/>
	</g>
	<g>
		<rect x="1205.5" y="1435.1" class="st1" width="110.6" height="136.1"/>
		<path class="st2" d="M1318.1,1573.2h-114.6v-140.1h114.6V1573.2z M1207.5,1569.2h106.6v-132.1h-106.6V1569.2z"/>
	</g>
	<g>
		<path class="st1" d="M1260.8,1418.1c-2.3,0-4.2,1.9-4.2,4.2s1.9,4.2,4.2,4.2s4.2-1.9,4.2-4.2S1263.1,1418.1,1260.8,1418.1
			L1260.8,1418.1z"/>
		<path class="st2" d="M1260.8,1428.6c-3.4,0-6.2-2.8-6.2-6.2s2.8-6.2,6.2-6.2s6.2,2.8,6.2,6.2S1264.2,1428.6,1260.8,1428.6z
			 M1260.8,1420.1c-1.2,0-2.2,1-2.2,2.2s1,2.2,2.2,2.2s2.2-1,2.2-2.2S1262,1420.1,1260.8,1420.1z"/>
	</g>
</g>
<g>
	<g>
		<path class="st4" d="M59.4,904.6c-18.6,0-33.8-15.2-33.8-33.8S40.8,837,59.4,837s33.8,15.2,33.8,33.8S78.1,904.6,59.4,904.6z
			 M59.4,840c-17,0-30.8,13.8-30.8,30.8s13.8,30.8,30.8,30.8s30.8-13.8,30.8-30.8S76.4,840,59.4,840z"/>
	</g>
	<g>
		<path class="st4" d="M120,932.9c-0.4,0-0.8-0.1-1.1-0.4l-37.7-37.8c-0.6-0.6-0.6-1.5,0-2.1c0.6-0.6,1.5-0.6,2.1,0l37.7,37.8
			c0.6,0.6,0.6,1.5,0,2.1C120.8,932.8,120.4,932.9,120,932.9z"/>
	</g>
</g>
<g>
	<g>
		<path class="st7" d="M1099.4,699.3h-33.6c-0.5,0-1-0.3-1.2-0.7l-16.8-25.2c-1.4-2.2-2.2-5.8-0.8-8.3c0.8-1.5,2.3-2.4,4.2-2.4
			c4.5,0,8.6,2,15.3,11.3v-41.3c0-4.3,3.5-7.8,7.8-7.8c0,0,0,0,0,0c4.3,0,7.8,3.5,7.8,7.8v24.1l17.5,6c5.1,1.6,6.6,7.4,5.5,12.2
			l-4.2,23C1100.7,698.8,1100.1,699.3,1099.4,699.3z M1066.6,696.3h31.5l4-21.8c0.8-3.5-0.2-7.7-3.5-8.8l-18.6-6.3
			c-0.6-0.2-1-0.8-1-1.4v-25.2c0-2.7-2.2-4.8-4.8-4.8c0,0,0,0,0,0c-2.6,0-4.8,2.2-4.8,4.8c0,0,0,0,0,0v46.2c0,0.7-0.4,1.2-1.1,1.4
			c-0.6,0.2-1.3-0.1-1.7-0.6c-8.4-12.9-12.1-14-15.5-14c-1,0-1.3,0.4-1.6,0.8c-0.7,1.2-0.3,3.7,0.7,5.3L1066.6,696.3z"/>
	</g>
	<g>
		<path class="st7" d="M1105.7,632.1h-12.6c-0.8,0-1.5-0.7-1.5-1.5s0.7-1.5,1.5-1.5h12.6c0.8,0,1.5,0.7,1.5,1.5
			S1106.5,632.1,1105.7,632.1z"/>
	</g>
	<g>
		<path class="st7" d="M1088.9,619.5c-0.4,0-0.8-0.1-1.1-0.4c-0.6-0.6-0.6-1.5,0-2.1l8.4-8.4c0.6-0.6,1.5-0.6,2.1,0
			c0.6,0.6,0.6,1.5,0,2.1l-8.4,8.4C1089.7,619.4,1089.3,619.5,1088.9,619.5z"/>
	</g>
	<g>
		<path class="st7" d="M1076.3,615.3c-0.8,0-1.5-0.7-1.5-1.5v-12.6c0-0.8,0.7-1.5,1.5-1.5s1.5,0.7,1.5,1.5v12.6
			C1077.8,614.7,1077.1,615.3,1076.3,615.3z"/>
	</g>
	<g>
		<path class="st7" d="M1059.5,619.5c-0.4,0-0.8-0.1-1.1-0.4l-8.4-8.4c-0.6-0.6-0.6-1.5,0-2.1c0.6-0.6,1.5-0.6,2.1,0l8.4,8.4
			c0.6,0.6,0.6,1.5,0,2.1C1060.3,619.4,1059.9,619.5,1059.5,619.5z"/>
	</g>
	<g>
		<path class="st7" d="M1055.3,632.1h-12.6c-0.8,0-1.5-0.7-1.5-1.5s0.7-1.5,1.5-1.5h12.6c0.8,0,1.5,0.7,1.5,1.5
			S1056.2,632.1,1055.3,632.1z"/>
	</g>
</g>
<g>
	<g>
		<path class="st4" d="M1864.9,482.2c-0.5,0-1-0.3-1.3-0.7c-1.9-2.9-46.6-70.9-46.6-96.6c-0.2-12.8,4.6-24.9,13.5-34
			s20.8-14.3,33.6-14.5c12.8-0.2,24.9,4.6,34,13.5c9.2,8.9,14.3,20.8,14.5,33.6c0,0.4,0,0.8,0,1.2c0,0,0,0.1,0,0.2
			c0,25.8-44.7,93.7-46.6,96.6C1865.9,481.9,1865.4,482.2,1864.9,482.2z M1865,339.3c-0.2,0-0.5,0-0.7,0c-12,0.2-23.2,5-31.5,13.6
			c-8.3,8.6-12.8,19.9-12.7,31.9c0,22.6,37.5,81.6,44.9,93.1c7.4-11.4,44.7-70.2,44.9-92.9c0-0.1,0-0.1,0-0.2c0-0.4,0-0.9,0-1.3
			c-0.2-12-5-23.2-13.6-31.5C1887.8,343.8,1876.7,339.3,1865,339.3z"/>
	</g>
	<g>
		<path class="st4" d="M1864.9,404.9c-11,0-20-9-20-20s9-20,20-20c11.1,0,20,9,20,20S1876,404.9,1864.9,404.9z M1864.9,367.8
			c-9.4,0-17,7.6-17,17s7.6,17,17,17c9.4,0,17-7.6,17-17S1874.3,367.8,1864.9,367.8z"/>
	</g>
</g>
<g>
	<g>
		<path class="st2" d="M2090.8,709.5h-26.3c-7.3,0-11.1-0.8-16.3-1.9c-3.2-0.7-6.9-1.4-12.2-2.2c-0.7-0.1-1.3-0.7-1.3-1.5v-34.3
			c0-0.8,0.7-1.5,1.5-1.5c8.7,0,24.8-16.9,24.8-32.8c0-3.5,2.3-6.3,5.4-6.8c3.3-0.5,7.6,1.7,9.7,9.3c1.7,6-1.6,15.9-3.2,20.2h30.1
			c4.2,0,7.6,3.4,7.6,7.6c0,3.3-2.2,8-5.8,9.3c1.1,1.3,1.8,3,1.8,4.9c0,3.6-2.5,6.6-5.8,7.4c1.1,1.3,1.7,3,1.7,4.8
			c0,2-0.8,3.9-2.2,5.3c-1,1-2.2,1.7-3.5,2c1.1,1.3,1.7,3,1.7,4.8C2098.3,709.5,2092.7,709.5,2090.8,709.5z M2037.8,702.7
			c4.8,0.7,8.1,1.4,11.1,2c5.1,1,8.7,1.8,15.7,1.8h26.3c4.2,0,4.6-1.1,4.6-2.5c0-2.5-2-4.6-4.6-4.6c-0.8,0-1.5-0.7-1.5-1.5
			s0.7-1.5,1.5-1.5h4c1.2,0,2.4-0.5,3.2-1.3s1.3-2,1.3-3.2c0-1.2-0.5-2.4-1.3-3.2c-0.9-0.9-2-1.3-3.2-1.3c0,0,0,0,0,0h0
			c-0.8,0-1.5-0.7-1.5-1.5c0-0.8,0.7-1.5,1.5-1.5c0,0,0.1,0,0.1,0c0,0,0,0,0,0h4c2.5,0,4.6-2,4.6-4.6c0-2.5-2-4.6-4.6-4.6
			c-0.8,0-1.5-0.7-1.5-1.5s0.7-1.5,1.5-1.5h4c2.3,0,4.6-3.8,4.6-6.6c0-2.5-2-4.6-4.6-4.6h-32.3c-0.5,0-1-0.3-1.3-0.7
			c-0.3-0.4-0.3-1-0.1-1.4c0.1-0.1,5.8-13.7,3.9-20.4c-1.6-5.7-4.4-7.4-6.4-7.1c-1.7,0.2-2.8,1.8-2.8,3.8c0,7.7-3.6,16.5-9.8,24.2
			c-5.3,6.5-11.5,10.8-16.5,11.6V702.7z"/>
	</g>
	<g>
		<path class="st2" d="M2036.2,713.5H2016c-0.8,0-1.5-0.7-1.5-1.5v-48.5c0-0.8,0.7-1.5,1.5-1.5h20.2c0.8,0,1.5,0.7,1.5,1.5V712
			C2037.7,712.9,2037,713.5,2036.2,713.5z M2017.5,710.5h17.2V665h-17.2V710.5z"/>
	</g>
	<g>
		<path class="st8" d="M2028.1,701.9c-1.1,0-2,0.9-2,2s0.9,2,2,2s2-0.9,2-2S2029.2,701.9,2028.1,701.9z"/>
		<path class="st2" d="M2028.1,707.4c-1.9,0-3.5-1.6-3.5-3.5s1.6-3.5,3.5-3.5s3.5,1.6,3.5,3.5S2030,707.4,2028.1,707.4z
			 M2028.1,703.4c-0.3,0-0.5,0.2-0.5,0.5s0.2,0.5,0.5,0.5s0.5-0.2,0.5-0.5S2028.4,703.4,2028.1,703.4z"/>
	</g>
</g>
<g>
	<g>
		<path class="st2" d="M1022.5,455c-0.4,0-0.8-0.2-1.1-0.5c-0.4-0.5-0.6-1.1-0.3-1.7l14.6-29.1C1023,413,1016,399,1016,384.1
			c0-31.1,30.8-56.4,68.8-56.4c37.9,0,68.8,25.3,68.8,56.4c0,31.1-30.8,56.4-68.8,56.4c-7.9,0-15.8-1.1-23.4-3.4l-38.1,17.8
			C1023,455,1022.7,455,1022.5,455z M1084.7,330.8c-36.3,0-65.8,23.9-65.8,53.4c0,14.3,7,27.8,19.6,38c0.6,0.4,0.7,1.2,0.4,1.8
			l-13.2,26.4l34.7-16.2c0.3-0.2,0.7-0.2,1.1-0.1c7.5,2.3,15.3,3.4,23.1,3.4c36.3,0,65.8-23.9,65.8-53.4
			C1150.5,354.7,1121,330.8,1084.7,330.8z"/>
	</g>
	<g>
		<path class="st2" d="M1087.7,418.5c-0.3,0-0.6-0.1-0.9-0.3c-1.3-1-32.8-24.1-32.8-41.9c0-11.4,7.8-18.2,15.6-19.2
			c6.1-0.7,14.1,2.2,18.1,12.3c3-7.1,8.9-13.4,18.1-12.3c7.7,0.9,15.6,7.8,15.6,19.2c0,17.9-31.4,41-32.8,41.9
			C1088.3,418.4,1088,418.5,1087.7,418.5z M1071.4,360c-0.5,0-1,0-1.5,0.1c-6.4,0.8-12.9,6.6-12.9,16.2c0,14.8,25.6,35,30.7,38.8
			c5.1-3.9,30.7-24,30.7-38.8c0-9.6-6.5-15.4-12.9-16.2c-6-0.7-13.5,2.7-16.3,14.5c-0.2,0.7-0.8,1.1-1.5,1.1l0,0
			c-0.7,0-1.3-0.5-1.5-1.1C1083.6,363.8,1077.1,360,1071.4,360z"/>
	</g>
</g>
<g>
	<g>
		<path class="st4" d="M443.9,341.2c-0.8,0-1.5-0.7-1.5-1.5v-30.9c0-0.8,0.7-1.5,1.5-1.5s1.5,0.7,1.5,1.5v30.9
			C445.4,340.5,444.7,341.2,443.9,341.2z"/>
	</g>
	<g>
		<path class="st4" d="M443.9,349.4c-2.1,0-3.9,1.7-3.9,3.9c0,2.1,1.7,3.9,3.9,3.9c2.1,0,3.9-1.7,3.9-3.9
			C447.8,351.1,446,349.4,443.9,349.4z"/>
		<path class="st4" d="M443.9,358.6c-3,0-5.4-2.4-5.4-5.4c0-3,2.4-5.4,5.4-5.4h0c3,0,5.4,2.4,5.4,5.4
			C449.2,356.2,446.8,358.6,443.9,358.6z M443.9,350.9c-1.3,0-2.4,1.1-2.4,2.4c0,1.3,1.1,2.4,2.4,2.4c1.3,0,2.4-1.1,2.4-2.4
			C446.2,351.9,445.2,350.9,443.9,350.9z"/>
	</g>
	<g>
		<path class="st4" d="M488.3,368.2h-88.9c-0.5,0-1-0.3-1.3-0.7c-0.3-0.4-0.3-1-0.1-1.5l44.5-88.9c0.3-0.5,0.8-0.8,1.3-0.8l0,0
			c0.6,0,1.1,0.3,1.3,0.8l44.4,88.9c0.2,0.5,0.2,1-0.1,1.5S488.9,368.2,488.3,368.2z M401.9,365.2h84l-42-84L401.9,365.2z"/>
	</g>
</g>
<g>
	<path class="st9" d="M1888.5,1385.5h-5v-1h5V1385.5z M1888.5,1376.5h-5v-6h5V1376.5z M1888.5,1362.5h-5v-6h5V1362.5z
		 M1888.5,1348.5h-5v-6h5V1348.5z M493.5,1345.5h-5v-6h5V1345.5z M1888.5,1334.5h-5v-6h5V1334.5z M493.5,1331.5h-5v-6h5V1331.5z
		 M1888.5,1320.5h-5v-6h5V1320.5z M493.5,1317.5h-5v-6h5V1317.5z M1888.5,1306.5h-5v-6h5V1306.5z M493.5,1303.5h-5v-6.5h4.5v2.5h0.5
		V1303.5z M1879,1302h-6v-5h6V1302z M1865,1302h-6v-5h6V1302z M1851,1302h-6v-5h6V1302z M1837,1302h-6v-5h6V1302z M1823,1302h-6v-5
		h6V1302z M1809,1302h-6v-5h6V1302z M1795,1302h-6v-5h6V1302z M1781,1302h-6v-5h6V1302z M1767,1302h-6v-5h6V1302z M1753,1302h-6v-5
		h6V1302z M1739,1302h-6v-5h6V1302z M1725,1302h-6v-5h6V1302z M1711,1302h-6v-5h6V1302z M1697,1302h-6v-5h6V1302z M1683,1302h-6v-5
		h6V1302z M1669,1302h-6v-5h6V1302z M1655,1302h-6v-5h6V1302z M1641,1302h-6v-5h6V1302z M1627,1302h-6v-5h6V1302z M1613,1302h-6v-5
		h6V1302z M1599,1302h-6v-5h6V1302z M1585,1302h-6v-5h6V1302z M1571,1302h-6v-5h6V1302z M1557,1302h-6v-5h6V1302z M1543,1302h-6v-5
		h6V1302z M1529,1302h-6v-5h6V1302z M1515,1302h-6v-5h6V1302z M1501,1302h-6v-5h6V1302z M1487,1302h-6v-5h6V1302z M1473,1302h-6v-5
		h6V1302z M1459,1302h-6v-5h6V1302z M1445,1302h-6v-5h6V1302z M1431,1302h-6v-5h6V1302z M1417,1302h-6v-5h6V1302z M1403,1302h-6v-5
		h6V1302z M1389,1302h-6v-5h6V1302z M1375,1302h-6v-5h6V1302z M1361,1302h-6v-5h6V1302z M1347,1302h-6v-5h6V1302z M1333,1302h-6v-5
		h6V1302z M1319,1302h-6v-5h6V1302z M1305,1302h-6v-5h6V1302z M1291,1302h-6v-5h6V1302z M1277,1302h-6v-5h6V1302z M1263,1302h-6v-5
		h6V1302z M1249,1302h-6v-5h6V1302z M1235,1302h-6v-5h6V1302z M1221,1302h-6v-5h6V1302z M1207,1302h-6v-5h6V1302z M1193,1302h-6v-5
		h6V1302z M1179,1302h-6v-5h6V1302z M1165,1302h-6v-5h6V1302z M1151,1302h-6v-5h6V1302z M1137,1302h-6v-5h6V1302z M1123,1302h-6v-5
		h6V1302z M1109,1302h-6v-5h6V1302z M1095,1302h-6v-5h6V1302z M1081,1302h-6v-5h6V1302z M1067,1302h-6v-5h6V1302z M1053,1302h-6v-5
		h6V1302z M1039,1302h-6v-5h6V1302z M1025,1302h-6v-5h6V1302z M1011,1302h-6v-5h6V1302z M997,1302h-6v-5h6V1302z M983,1302h-6v-5h6
		V1302z M969,1302h-6v-5h6V1302z M955,1302h-6v-5h6V1302z M941,1302h-6v-5h6V1302z M927,1302h-6v-5h6V1302z M913,1302h-6v-5h6V1302z
		 M899,1302h-6v-5h6V1302z M885,1302h-6v-5h6V1302z M871,1302h-6v-5h6V1302z M857,1302h-6v-5h6V1302z M843,1302h-6v-5h6V1302z
		 M829,1302h-6v-5h6V1302z M815,1302h-6v-5h6V1302z M801,1302h-6v-5h6V1302z M787,1302h-6v-5h6V1302z M773,1302h-6v-5h6V1302z
		 M759,1302h-6v-5h6V1302z M745,1302h-6v-5h6V1302z M731,1302h-6v-5h6V1302z M717,1302h-6v-5h6V1302z M703,1302h-6v-5h6V1302z
		 M689,1302h-6v-5h6V1302z M675,1302h-6v-5h6V1302z M661,1302h-6v-5h6V1302z M647,1302h-6v-5h6V1302z M633,1302h-6v-5h6V1302z
		 M619,1302h-6v-5h6V1302z M605,1302h-6v-5h6V1302z M591,1302h-6v-5h6V1302z M577,1302h-6v-5h6V1302z M563,1302h-6v-5h6V1302z
		 M549,1302h-6v-5h6V1302z M535,1302h-6v-5h6V1302z M521,1302h-6v-5h6V1302z M507,1302h-6v-5h6V1302z"/>
</g>
<g>
	<path class="st9" d="M910,1399h-5v-2h5V1399z M910,1389h-5v-6h5V1389z M910,1375h-5v-6h5V1375z M910,1361h-5v-6h5V1361z M910,1347
		h-5v-6h5V1347z M910,1333h-5v-6h5V1333z M910,1319h-5v-6h5V1319z M910,1305h-5v-6h5V1305z"/>
</g>
<g>
	<path class="st9" d="M1261,1393h-5v-6h5V1393z M1261,1379h-5v-6h5V1379z M1261,1365h-5v-6h5V1365z M1261,1351h-5v-6h5V1351z
		 M1261,1337h-5v-6h5V1337z M1261,1323h-5v-6h5V1323z M1261,1309h-5v-6h5V1309z M1261,1295h-5v-6h5V1295z M1261,1281h-5v-6h5V1281z
		 M1261,1267h-5v-6h5V1267z M1261,1253h-5v-6h5V1253z M1261,1239h-5v-6h5V1239z M1261,1225h-5v-6h5V1225z M1261,1211h-5v-6h5V1211z"
		/>
</g>
<g>
	<path class="st9" d="M1582,1385h-5v-2h5V1385z M1582,1375h-5v-6h5V1375z M1582,1361h-5v-6h5V1361z M1582,1347h-5v-6h5V1347z
		 M1582,1333h-5v-6h5V1333z M1582,1319h-5v-6h5V1319z M1582,1305h-5v-6h5V1305z"/>
</g>
<g>
	<path class="st2" d="M986,750h-5v-6h5V750z M986,736h-5v-6h5V736z M986,722h-5v-6h5V722z M986,708h-5v-6h5V708z M986,694h-5v-6h5
		V694z M986,680h-5v-6h5V680z M986,666h-5v-6h5V666z M986,652h-5v-6h5V652z M986,638h-5v-6h5V638z M986,624h-5v-6h5V624z M986,610
		h-5v-6h5V610z M986,596h-5v-6h5V596z M986,582h-5v-6h5V582z M986,568h-5v-6h5V568z M986,554h-5v-6h5V554z M986,540h-5v-6h5V540z
		 M986,526h-5v-6h5V526z M986,512h-5v-6h5V512z M986,498h-5v-6h5V498z M986,484h-5v-6h5V484z M986,470h-5v-6h5V470z M986,456h-5v-6
		h5V456z M986,442h-5v-6h5V442z M986,428h-5v-6h5V428z M986,414h-5v-6h5V414z M986,400h-5v-6h5V400z M986,386h-5v-6h5V386z M986,372
		h-5v-6h5V372z M986,358h-5v-6h5V358z M986,344h-5v-6h5V344z M986,330h-5v-6h5V330z M986,316h-5v-6h5V316z M986,302h-5v-6h5V302z
		 M986,288h-5v-6h5V288z M986,274h-5v-6h5V274z M986,260h-5v-6h5V260z"/>
</g>
<g>
	<path class="st4" d="M1288,842h-5v-4h5V842z M1288,830h-5v-6h5V830z M1288,816h-5v-6h5V816z M1288,802h-5v-6h5V802z M1288,788h-5
		v-6h5V788z M1288,774h-5v-6h5V774z M1288,760h-5v-6h5V760z M1288,746h-5v-6h5V746z M1288,732h-5v-6h5V732z M1288,718h-5v-6h5V718z
		 M1288,704h-5v-6h5V704z M1288,690h-5v-6h5V690z M1288,676h-5v-6h5V676z M1288,662h-5v-6h5V662z M1288,648h-5v-6h5V648z M1288,634
		h-5v-6h5V634z M1288,620h-5v-6h5V620z M1288,606h-5v-6h5V606z M1288,592h-5v-6h5V592z M1288,578h-5v-6h5V578z M1288,564h-5v-6h5
		V564z M1288,550h-5v-6h5V550z M1288,536h-5v-6h5V536z M1288,522h-5v-6h5V522z M1288,508h-5v-6h5V508z M1288,494h-5v-6h5V494z
		 M1288,480h-5v-6h5V480z M1288,466h-5v-6h5V466z M1288,452h-5v-6h5V452z M1288,438h-5v-6h5V438z M1288,424h-5v-6h5V424z M1288,410
		h-5v-6h5V410z M1288,396h-5v-6h5V396z M1288,382h-5v-6h5V382z M1288,368h-5v-6h5V368z M1288,354h-5v-6h5V354z M1288,340h-5v-6h5
		V340z M1288,326h-5v-6h5V326z M1288,312h-5v-6h5V312z M1288,298h-5v-6h5V298z M1288,284h-5v-6h5V284z M1288,270h-5v-6h5V270z
		 M1288,256h-5v-6h5V256z"/>
</g>
<g>
	<path class="st3" d="M856.5,106.3l-1.8,4.1c-1.8-0.6-3.2-1.1-4.3-1.3c-1.1-0.2-2.5-0.4-4.3-0.4c-2.5,0-4.7,0.7-6.7,2
		c-2,1.4-3.6,3.3-4.7,5.8c-1.1,2.5-1.7,5.3-1.7,8.5c0,2.9,0.5,5.6,1.5,8c1,2.4,2.5,4.4,4.4,5.8c1.9,1.4,4.2,2.1,6.7,2.1
		c3.3,0,6.3-0.6,8.8-1.8l2.2,4.3c-1.3,0.7-3,1.2-5.1,1.7c-2.1,0.5-4,0.7-5.7,0.7c-4,0-7.4-0.9-10.2-2.8c-2.8-1.8-5-4.3-6.4-7.5
		c-1.4-3.1-2.2-6.7-2.2-10.5c0-4,0.8-7.7,2.3-10.9c1.6-3.2,3.8-5.8,6.7-7.6s6.3-2.8,10.1-2.8c1.4,0,3.2,0.2,5.2,0.6
		C853.5,104.9,855.2,105.5,856.5,106.3z"/>
	<path class="st3" d="M886.6,138.6c-1.2,2.3-2.9,4.1-5.1,5.3s-4.8,1.9-7.7,1.9c-2.9,0-5.4-0.6-7.6-1.9c-2.2-1.3-3.8-3-5-5.3
		c-1.1-2.3-1.7-4.9-1.7-8c0-3,0.6-5.6,1.8-7.9c1.2-2.3,2.9-4.1,5-5.3c2.2-1.3,4.7-1.9,7.7-1.9c2.9,0,5.4,0.6,7.6,1.9
		c2.2,1.3,3.8,3,5,5.3c1.2,2.3,1.8,4.9,1.8,8C888.4,133.6,887.8,136.3,886.6,138.6z M880.2,138c1.6-1.9,2.4-4.4,2.4-7.3
		c0-3.1-0.8-5.6-2.3-7.5c-1.5-1.9-3.6-2.9-6.2-2.9c-2.6,0-4.7,1-6.3,2.9c-1.6,1.9-2.4,4.4-2.4,7.3c0,3.1,0.8,5.6,2.3,7.5
		c1.5,1.9,3.6,2.9,6.2,2.9C876.5,141,878.6,140,880.2,138z"/>
	<path class="st3" d="M934.6,118.2c1.5,2,2.3,4.6,2.3,7.8v19h-5.7v-18.5c0-2.1-0.3-3.6-1-4.7c-0.7-1.1-1.9-1.7-3.5-1.7
		c-1.1,0-2.5,0.4-3.9,1.2c-1.5,0.8-2.9,1.8-4.4,3.1c0,0.4,0.1,0.9,0.1,1.7v19h-5.7v-18.5c0-2.1-0.3-3.6-1-4.7
		c-0.7-1.1-1.9-1.7-3.5-1.7c-1.2,0-2.6,0.4-4.1,1.3c-1.5,0.9-3.1,1.9-4.6,3.3V145h-5.7v-28.8h4l1,3.8c1.5-1.4,3.2-2.5,5.1-3.4
		c1.9-0.9,3.7-1.3,5.5-1.3c1.9,0,3.5,0.4,4.8,1.2c1.3,0.8,2.3,2,3,3.5c1.5-1.4,3.2-2.5,5.1-3.4c1.9-0.9,3.7-1.3,5.5-1.3
		C930.8,115.3,933.1,116.3,934.6,118.2z"/>
	<path class="st3" d="M944.9,104.7h5.7v25.4c0,3.4,0.9,6,2.8,8c1.8,2,4.3,2.9,7.3,2.9c3.1,0,5.5-1,7.3-3c1.8-2,2.7-4.6,2.7-8v-25.4
		h5.8v25.9c0,2.9-0.6,5.5-1.9,7.7c-1.3,2.3-3.1,4.1-5.5,5.4c-2.4,1.3-5.1,2-8.3,2c-3.2,0-5.9-0.6-8.3-1.9c-2.4-1.3-4.2-3.1-5.5-5.4
		c-1.3-2.3-1.9-4.9-1.9-7.8V104.7z"/>
	<path class="st3" d="M990.4,124.7V145h-5.7v-28.8h4l1,3.8c1.5-1.4,3.3-2.5,5.2-3.4c1.9-0.9,3.9-1.3,5.8-1.3c3.1,0,5.5,1,7,2.9
		c1.5,1.9,2.3,4.6,2.3,7.8v19h-5.7v-18.5c0-2.1-0.3-3.7-1-4.8c-0.7-1.1-1.9-1.6-3.7-1.6c-1.3,0-2.8,0.4-4.4,1.3
		C993.5,122.3,991.9,123.4,990.4,124.7z"/>
	<path class="st3" d="M1019.6,111.1c-1,0-1.8-0.3-2.5-1c-0.7-0.7-1-1.5-1-2.5c0-1,0.3-1.8,1-2.5c0.7-0.7,1.5-1,2.5-1
		c1,0,1.8,0.3,2.6,1c0.7,0.7,1.1,1.5,1.1,2.5c0,1-0.4,1.8-1.1,2.5C1021.4,110.7,1020.6,111.1,1019.6,111.1z M1022.6,116.3V145h-5.8
		v-28.8H1022.6z"/>
	<path class="st3" d="M1036.8,116.6h5.2l1.8,4.3h-7v15.2c0,1.5,0.3,2.8,1,3.7c0.7,0.9,1.7,1.3,3.1,1.3c0.7,0,1.6-0.2,2.8-0.7
		l1.5,4.3c-0.6,0.3-1.4,0.6-2.3,0.9c-0.9,0.3-1.8,0.4-2.6,0.4c-2.8,0-5.1-0.8-6.7-2.3c-1.6-1.6-2.5-3.8-2.5-6.7v-16.1h-4l-0.1-4.3
		h4.1v-7.2l5.7-1.3V116.6z"/>
	<path class="st3" d="M1055.8,148.7l1.7-4.4l-10.5-27.1l5.4-2l8,21.7l7.6-20.7h5.9l-12.8,34c-0.7,1.9-2,3.6-3.8,5
		c-1.8,1.4-3.9,2.4-6.2,2.9l-1.9-4.4c1.9-0.8,3.4-1.6,4.4-2.3C1054.6,150.8,1055.4,149.9,1055.8,148.7z"/>
	<path class="st3" d="M1107.8,145h-14.3v-40.4h14.5c6,0,10.5,1.8,13.5,5.5c3,3.7,4.5,8.5,4.5,14.5c0,4-0.7,7.5-2.1,10.6
		c-1.4,3.1-3.5,5.5-6.2,7.2C1114.9,144.2,1111.6,145,1107.8,145z M1108.2,109.5h-9.1v30.7h8.6c3.8,0,6.8-1.4,9.1-4.1
		c2.3-2.7,3.4-6.6,3.4-11.5c0-4.7-1-8.4-3-11.1C1115.2,110.9,1112.2,109.5,1108.2,109.5z"/>
	<path class="st3" d="M1134.7,111.1c-1,0-1.8-0.3-2.5-1c-0.7-0.7-1-1.5-1-2.5c0-1,0.3-1.8,1-2.5c0.7-0.7,1.5-1,2.5-1
		c1,0,1.8,0.3,2.6,1c0.7,0.7,1.1,1.5,1.1,2.5c0,1-0.4,1.8-1.1,2.5C1136.5,110.7,1135.7,111.1,1134.7,111.1z M1137.7,116.3V145h-5.8
		v-28.8H1137.7z"/>
	<path class="st3" d="M1169.4,147.6c0,2.1-0.5,4-1.6,5.7c-1.1,1.7-2.7,3-4.7,3.9c-2.1,0.9-4.5,1.4-7.4,1.4c-1.4,0-3.1-0.3-5.2-0.8
		c-2.1-0.5-3.8-1.2-5-2l1.7-4.1c2,0.9,3.5,1.5,4.5,1.8c1,0.3,2.3,0.5,3.8,0.5c2.5,0,4.4-0.6,5.9-1.7c1.5-1.1,2.3-2.7,2.3-4.8v-3.7
		c-1.1,0.6-2.2,1.1-3.3,1.5c-1.1,0.4-2.1,0.5-3,0.5c-2.9,0-5.5-0.6-7.6-1.9c-2.2-1.3-3.8-3.1-5-5.4c-1.1-2.3-1.7-5-1.7-8.1
		c0-3,0.6-5.6,1.8-7.8c1.2-2.3,2.9-4,5-5.3c2.2-1.2,4.7-1.9,7.5-1.9c1,0,2.3,0.2,3.7,0.7c1.4,0.5,2.7,1.2,3.9,2.1l1.1-2h3.3V147.6z
		 M1160.8,140.4c1-0.4,1.9-1,2.8-1.8v-15.9c-0.9-0.8-1.9-1.4-2.9-1.7c-1-0.4-2.1-0.5-3.4-0.5c-2.7,0-4.7,0.9-6.2,2.8
		c-1.5,1.9-2.3,4.3-2.3,7.2c0,3.2,0.7,5.7,2.2,7.7c1.5,1.9,3.6,2.9,6.3,2.9C1158.6,141,1159.8,140.8,1160.8,140.4z"/>
	<path class="st3" d="M1179.6,111.1c-1,0-1.8-0.3-2.5-1c-0.7-0.7-1-1.5-1-2.5c0-1,0.3-1.8,1-2.5c0.7-0.7,1.5-1,2.5-1
		c1,0,1.8,0.3,2.6,1c0.7,0.7,1.1,1.5,1.1,2.5c0,1-0.4,1.8-1.1,2.5C1181.5,110.7,1180.6,111.1,1179.6,111.1z M1182.6,116.3V145h-5.8
		v-28.8H1182.6z"/>
	<path class="st3" d="M1196.9,116.6h5.2l1.8,4.3h-7v15.2c0,1.5,0.3,2.8,1,3.7c0.7,0.9,1.7,1.3,3.1,1.3c0.7,0,1.6-0.2,2.8-0.7
		l1.5,4.3c-0.6,0.3-1.4,0.6-2.3,0.9c-0.9,0.3-1.8,0.4-2.6,0.4c-2.8,0-5.1-0.8-6.7-2.3c-1.6-1.6-2.5-3.8-2.5-6.7v-16.1h-4l-0.1-4.3
		h4.1v-7.2l5.7-1.3V116.6z"/>
	<path class="st3" d="M1212.8,111.1c-1,0-1.8-0.3-2.5-1c-0.7-0.7-1-1.5-1-2.5c0-1,0.3-1.8,1-2.5c0.7-0.7,1.5-1,2.5-1
		c1,0,1.8,0.3,2.6,1c0.7,0.7,1.1,1.5,1.1,2.5c0,1-0.4,1.8-1.1,2.5C1214.6,110.7,1213.7,111.1,1212.8,111.1z M1215.7,116.3V145h-5.8
		v-28.8H1215.7z"/>
	<path class="st3" d="M1221.3,143.2l1.8-4c2.7,1.3,5.3,2,7.7,2c1.9,0,3.4-0.3,4.5-1c1.1-0.7,1.7-1.6,1.7-2.7c0-2-2.1-3.6-6.4-5
		c-6.3-2.1-9.4-4.9-9.4-8.7c0-2.6,1-4.7,2.9-6.1c2-1.5,4.6-2.2,8-2.2c1.3,0,2.9,0.3,4.8,0.8c1.8,0.5,3.3,1.2,4.5,2l-1.8,3.9
		c-1.4-0.6-2.7-1.1-3.8-1.5c-1.1-0.3-2.4-0.5-3.8-0.5c-1.5,0-2.7,0.3-3.7,1c-1,0.7-1.5,1.6-1.5,2.6c0,0.8,0.6,1.5,1.6,2.2
		c1,0.7,2.5,1.3,4.4,2c6.5,2.3,9.7,5.4,9.7,9.3c0,2.7-1,4.8-3,6.4s-4.9,2.3-8.7,2.3c-1.4,0-3-0.2-5-0.7
		C1223.9,144.6,1222.4,144,1221.3,143.2z"/>
	<path class="st3" d="M1250.4,122.5l-1.6-4.5c1-0.7,2.6-1.3,4.7-1.8c2.1-0.5,3.8-0.7,5.1-0.7c2.2,0,4.2,0.4,5.9,1.3
		c1.8,0.9,3.2,2.1,4.2,3.7c1,1.5,1.5,3.2,1.5,5V145h-4l-0.7-2.7c-1.1,0.9-2.4,1.8-3.9,2.4c-1.5,0.7-3,1-4.5,1
		c-3.3,0-5.8-0.8-7.5-2.5c-1.7-1.6-2.6-3.8-2.6-6.6c0-2.8,1-5,2.9-6.6c1.9-1.6,4.5-2.3,7.7-2.3h6.8c0-2.3-0.4-4.1-1.3-5.4
		c-0.9-1.2-2.3-1.9-4.5-1.9C1256.1,120.6,1253.3,121.2,1250.4,122.5z M1252.2,136.7c0,1.2,0.4,2.3,1.2,3.2c0.8,0.9,2,1.3,3.6,1.3
		c1.4,0,2.7-0.3,4-1c1.3-0.7,2.5-1.6,3.5-2.8v-5.8h-7c-1.7,0-3,0.5-3.9,1.5C1252.6,134.1,1252.2,135.3,1252.2,136.7z"/>
	<path class="st3" d="M1284.2,116.6h5.2l1.8,4.3h-7v15.2c0,1.5,0.3,2.8,1,3.7c0.7,0.9,1.7,1.3,3.1,1.3c0.7,0,1.6-0.2,2.8-0.7
		l1.5,4.3c-0.6,0.3-1.4,0.6-2.3,0.9c-0.9,0.3-1.8,0.4-2.6,0.4c-2.8,0-5.1-0.8-6.7-2.3c-1.6-1.6-2.5-3.8-2.5-6.7v-16.1h-4l-0.1-4.3
		h4.1v-7.2l5.7-1.3V116.6z"/>
	<path class="st3" d="M1300.1,111.1c-1,0-1.8-0.3-2.5-1c-0.7-0.7-1-1.5-1-2.5c0-1,0.3-1.8,1-2.5c0.7-0.7,1.5-1,2.5-1s1.8,0.3,2.6,1
		c0.7,0.7,1.1,1.5,1.1,2.5c0,1-0.4,1.8-1.1,2.5C1302,110.7,1301.1,111.1,1300.1,111.1z M1303.1,116.3V145h-5.8v-28.8H1303.1z"/>
	<path class="st3" d="M1335.5,138.6c-1.2,2.3-2.9,4.1-5.1,5.3s-4.8,1.9-7.7,1.9c-2.9,0-5.4-0.6-7.6-1.9c-2.2-1.3-3.8-3-5-5.3
		c-1.1-2.3-1.7-4.9-1.7-8c0-3,0.6-5.6,1.8-7.9c1.2-2.3,2.9-4.1,5-5.3c2.2-1.3,4.7-1.9,7.7-1.9c2.9,0,5.4,0.6,7.6,1.9
		c2.2,1.3,3.8,3,5,5.3c1.2,2.3,1.8,4.9,1.8,8C1337.2,133.6,1336.6,136.3,1335.5,138.6z M1329,138c1.6-1.9,2.4-4.4,2.4-7.3
		c0-3.1-0.8-5.6-2.3-7.5c-1.5-1.9-3.6-2.9-6.2-2.9c-2.6,0-4.7,1-6.3,2.9c-1.6,1.9-2.4,4.4-2.4,7.3c0,3.1,0.8,5.6,2.3,7.5
		c1.5,1.9,3.6,2.9,6.2,2.9C1325.4,141,1327.4,140,1329,138z"/>
	<path class="st3" d="M1348.3,124.7V145h-5.7v-28.8h4l1,3.8c1.5-1.4,3.3-2.5,5.2-3.4c1.9-0.9,3.9-1.3,5.8-1.3c3.1,0,5.5,1,7,2.9
		c1.5,1.9,2.3,4.6,2.3,7.8v19h-5.7v-18.5c0-2.1-0.3-3.7-1-4.8c-0.7-1.1-1.9-1.6-3.7-1.6c-1.3,0-2.8,0.4-4.4,1.3
		C1351.4,122.3,1349.8,123.4,1348.3,124.7z"/>
	<path class="st3" d="M1395.8,130.2V145h-5.7v-40.4h11.6c4.6,0,8.3,1,11.1,3.1c2.8,2.1,4.2,5.2,4.2,9.5c0,2.9-0.7,5.3-2.1,7.2
		c-1.4,1.9-3.3,3.4-5.7,4.3c-2.4,0.9-5.1,1.4-8,1.4H1395.8z M1401.6,109.5h-5.8v16h5.5c2.9,0,5.2-0.7,6.9-2c1.7-1.3,2.6-3.3,2.8-6
		c0-2.9-0.8-5-2.4-6.2C1407.1,110.1,1404.7,109.5,1401.6,109.5z"/>
	<path class="st3" d="M1428.6,103.1V145h-5.7v-41.3L1428.6,103.1z"/>
	<path class="st3" d="M1438.9,122.5l-1.6-4.5c1-0.7,2.6-1.3,4.7-1.8c2.1-0.5,3.8-0.7,5.1-0.7c2.2,0,4.2,0.4,5.9,1.3
		c1.8,0.9,3.2,2.1,4.2,3.7c1,1.5,1.5,3.2,1.5,5V145h-4l-0.7-2.7c-1.1,0.9-2.4,1.8-3.9,2.4s-3,1-4.5,1c-3.3,0-5.8-0.8-7.5-2.5
		c-1.7-1.6-2.6-3.8-2.6-6.6c0-2.8,1-5,2.9-6.6c1.9-1.6,4.5-2.3,7.7-2.3h6.8c0-2.3-0.4-4.1-1.3-5.4c-0.9-1.2-2.3-1.9-4.5-1.9
		C1444.6,120.6,1441.8,121.2,1438.9,122.5z M1440.6,136.7c0,1.2,0.4,2.3,1.2,3.2c0.8,0.9,2,1.3,3.6,1.3c1.4,0,2.7-0.3,4-1
		c1.3-0.7,2.5-1.6,3.5-2.8v-5.8h-7c-1.7,0-3,0.5-3.9,1.5C1441.1,134.1,1440.6,135.3,1440.6,136.7z"/>
	<path class="st3" d="M1472.7,116.6h5.2l1.8,4.3h-7v15.2c0,1.5,0.3,2.8,1,3.7c0.7,0.9,1.7,1.3,3.1,1.3c0.7,0,1.6-0.2,2.8-0.7
		l1.5,4.3c-0.6,0.3-1.4,0.6-2.3,0.9c-0.9,0.3-1.8,0.4-2.6,0.4c-2.8,0-5.1-0.8-6.7-2.3c-1.6-1.6-2.5-3.8-2.5-6.7v-16.1h-4l-0.1-4.3
		h4.1v-7.2l5.7-1.3V116.6z"/>
	<path class="st3" d="M1487.5,120.9h-4.3l-0.1-4.3h4.4v-3.7c0-2.9,0.8-5.2,2.4-6.9c1.6-1.7,3.9-2.6,6.7-2.6c0.8,0,1.7,0.1,2.6,0.4
		c0.9,0.3,1.7,0.6,2.2,0.9l-1.4,4.4c-1.1-0.4-2.1-0.7-2.8-0.7c-1.3,0-2.3,0.4-3,1.3c-0.7,0.9-1,2.1-1,3.7v3.2h5.3l1.8,4.3h-7.2V145
		h-5.7V120.9z"/>
	<path class="st3" d="M1530.3,138.6c-1.2,2.3-2.9,4.1-5.1,5.3s-4.8,1.9-7.7,1.9c-2.9,0-5.4-0.6-7.6-1.9c-2.2-1.3-3.8-3-5-5.3
		c-1.1-2.3-1.7-4.9-1.7-8c0-3,0.6-5.6,1.8-7.9c1.2-2.3,2.9-4.1,5-5.3c2.2-1.3,4.7-1.9,7.7-1.9c2.9,0,5.4,0.6,7.6,1.9
		c2.2,1.3,3.8,3,5,5.3c1.2,2.3,1.8,4.9,1.8,8C1532,133.6,1531.5,136.3,1530.3,138.6z M1523.8,138c1.6-1.9,2.4-4.4,2.4-7.3
		c0-3.1-0.8-5.6-2.3-7.5c-1.5-1.9-3.6-2.9-6.2-2.9c-2.6,0-4.7,1-6.3,2.9c-1.6,1.9-2.4,4.4-2.4,7.3c0,3.1,0.8,5.6,2.3,7.5
		c1.5,1.9,3.6,2.9,6.2,2.9C1520.2,141,1522.3,140,1523.8,138z"/>
	<path class="st3" d="M1543.1,126V145h-5.7v-28.8h3.2l1.8,4.7c1.3-1.1,2.9-2.2,4.8-3.2c1.8-1,3.5-1.5,4.8-1.5l1.2,4.6
		c-1.5,0-3.2,0.5-5.1,1.5C1546.3,123.4,1544.6,124.6,1543.1,126z"/>
	<path class="st3" d="M1598.3,118.2c1.5,2,2.3,4.6,2.3,7.8v19h-5.7v-18.5c0-2.1-0.3-3.6-1-4.7c-0.7-1.1-1.9-1.7-3.5-1.7
		c-1.1,0-2.5,0.4-3.9,1.2c-1.5,0.8-2.9,1.8-4.4,3.1c0,0.4,0.1,0.9,0.1,1.7v19h-5.7v-18.5c0-2.1-0.3-3.6-1-4.7
		c-0.7-1.1-1.9-1.7-3.5-1.7c-1.2,0-2.6,0.4-4.1,1.3c-1.5,0.9-3.1,1.9-4.6,3.3V145h-5.7v-28.8h4l1,3.8c1.5-1.4,3.2-2.5,5.1-3.4
		c1.9-0.9,3.7-1.3,5.5-1.3c1.9,0,3.5,0.4,4.8,1.2s2.3,2,3,3.5c1.5-1.4,3.2-2.5,5.1-3.4c1.9-0.9,3.7-1.3,5.5-1.3
		C1594.5,115.3,1596.8,116.3,1598.3,118.2z"/>
</g>
<g>
	<g>
		<path class="st6" d="M331.7,597.2H209.8c-7.9,0-14.3-6.4-14.3-14.3v-89.8c0-7.9,6.4-14.3,14.3-14.3h121.8
			c7.9,0,14.3,6.4,14.3,14.3v89.8C346,590.8,339.6,597.2,331.7,597.2z M209.8,481.8c-6.2,0-11.3,5.1-11.3,11.3v89.8
			c0,6.2,5.1,11.3,11.3,11.3h121.8c6.2,0,11.3-5.1,11.3-11.3v-89.8c0-6.2-5.1-11.3-11.3-11.3H209.8z"/>
	</g>
	<g>
		<path class="st6" d="M344.5,513.8H197c-0.8,0-1.5-0.7-1.5-1.5s0.7-1.5,1.5-1.5h147.5c0.8,0,1.5,0.7,1.5,1.5
			S345.3,513.8,344.5,513.8z"/>
	</g>
	<g>
		<path class="st6" d="M219.4,501c-2.6,0-4.7-2.1-4.7-4.7s2.1-4.7,4.7-4.7s4.7,2.1,4.7,4.7S222,501,219.4,501z M219.4,494.6
			c-0.9,0-1.7,0.8-1.7,1.7s0.8,1.7,1.7,1.7s1.7-0.8,1.7-1.7S220.4,494.6,219.4,494.6z"/>
	</g>
	<g>
		<path class="st6" d="M238.7,501c-2.6,0-4.7-2.1-4.7-4.7s2.1-4.7,4.7-4.7s4.7,2.1,4.7,4.7S241.3,501,238.7,501z M238.7,494.6
			c-0.9,0-1.7,0.8-1.7,1.7s0.8,1.7,1.7,1.7s1.7-0.8,1.7-1.7S239.6,494.6,238.7,494.6z"/>
	</g>
	<g>
		<path class="st6" d="M257.9,501c-2.6,0-4.7-2.1-4.7-4.7s2.1-4.7,4.7-4.7s4.7,2.1,4.7,4.7S260.5,501,257.9,501z M257.9,494.6
			c-0.9,0-1.7,0.8-1.7,1.7s0.8,1.7,1.7,1.7s1.7-0.8,1.7-1.7S258.9,494.6,257.9,494.6z"/>
	</g>
	<g>
		<g>
			<polygon class="st6" points="225.9,528.4 213,528.4 213,541.2 225.9,541.2 225.9,528.4 			"/>
		</g>
	</g>
	<g>
		<g>
			<polygon class="st6" points="225.9,547.6 213,547.6 213,560.4 225.9,560.4 225.9,547.6 			"/>
		</g>
	</g>
	<g>
		<g>
			<polygon class="st6" points="225.9,566.8 213,566.8 213,579.7 225.9,579.7 225.9,566.8 			"/>
		</g>
	</g>
	<g>
		<g>
			<polygon class="st6" points="251.5,528.4 238.7,528.4 238.7,541.2 251.5,541.2 251.5,528.4 			"/>
		</g>
	</g>
	<g>
		<g>
			<polygon class="st6" points="251.5,547.6 238.7,547.6 238.7,560.4 251.5,560.4 251.5,547.6 			"/>
		</g>
	</g>
	<g>
		<g>
			<polygon class="st6" points="251.5,566.8 238.7,566.8 238.7,579.7 251.5,579.7 251.5,566.8 			"/>
		</g>
	</g>
	<g>
		<g>
			<polygon class="st6" points="277.2,528.4 264.3,528.4 264.3,541.2 277.2,541.2 277.2,528.4 			"/>
		</g>
	</g>
	<g>
		<g>
			<polygon class="st6" points="277.2,547.6 264.3,547.6 264.3,560.4 277.2,560.4 277.2,547.6 			"/>
		</g>
	</g>
	<g>
		<g>
			<polygon class="st6" points="277.2,566.8 264.3,566.8 264.3,579.7 277.2,579.7 277.2,566.8 			"/>
		</g>
	</g>
	<g>
		<g>
			<polygon class="st6" points="302.8,528.4 290,528.4 290,541.2 302.8,541.2 302.8,528.4 			"/>
		</g>
	</g>
	<g>
		<g>
			<polygon class="st6" points="302.8,547.6 290,547.6 290,560.4 302.8,560.4 302.8,547.6 			"/>
		</g>
	</g>
	<g>
		<g>
			<polygon class="st6" points="302.8,566.8 290,566.8 290,579.7 302.8,579.7 302.8,566.8 			"/>
		</g>
	</g>
	<g>
		<g>
			<polygon class="st6" points="328.5,528.4 315.6,528.4 315.6,541.2 328.5,541.2 328.5,528.4 			"/>
		</g>
	</g>
	<g>
		<g>
			<polygon class="st6" points="328.5,547.6 315.6,547.6 315.6,560.4 328.5,560.4 328.5,547.6 			"/>
		</g>
	</g>
	<g>
		<g>
			<polygon class="st6" points="328.5,566.8 315.6,566.8 315.6,579.7 328.5,579.7 328.5,566.8 			"/>
		</g>
	</g>
</g>
<g>
	<g>
		<path class="st4" d="M1641.2,800.5c-0.2,0-0.5-0.1-0.7-0.2c-0.5-0.3-0.8-0.8-0.8-1.3v-19.3h-28.2c-0.8,0-1.5-0.7-1.5-1.5v-47.5
			c0-0.8,0.7-1.5,1.5-1.5H1748c0.8,0,1.5,0.7,1.5,1.5v47.5c0,0.8-0.7,1.5-1.5,1.5h-79.6l-26.3,20.5
			C1641.8,800.4,1641.5,800.5,1641.2,800.5z M1613,776.7h28.2c0.8,0,1.5,0.7,1.5,1.5v17.7L1667,777c0.3-0.2,0.6-0.3,0.9-0.3h78.6
			v-44.5H1613V776.7z"/>
	</g>
	<g>
		<path class="st4" d="M1718.3,862.8c-0.4,0-0.7-0.1-1-0.4l-26.3-23.4h-79.5c-0.8,0-1.5-0.7-1.5-1.5V796c0-0.8,0.7-1.5,1.5-1.5h14.8
			c0.8,0,1.5,0.7,1.5,1.5s-0.7,1.5-1.5,1.5H1613V836h78.6c0.4,0,0.7,0.1,1,0.4l24.2,21.5v-20.4c0-0.8,0.7-1.5,1.5-1.5h28.2v-38.5
			h-75.7c-0.8,0-1.5-0.7-1.5-1.5s0.7-1.5,1.5-1.5h77.2c0.8,0,1.5,0.7,1.5,1.5v41.5c0,0.8-0.7,1.5-1.5,1.5h-28.2v22.2
			c0,0.6-0.3,1.1-0.9,1.4C1718.7,862.7,1718.5,862.8,1718.3,862.8z"/>
	</g>
</g>
<g>
	<g>
		<path class="st2" d="M722.5,843.1h-87c-4.8,0-8.7-3.9-8.7-8.7v-53.1c0-4.8,3.9-8.7,8.7-8.7h87c4.8,0,8.7,3.9,8.7,8.7v53.1
			C731.3,839.2,727.4,843.1,722.5,843.1z M635.6,775.5c-3.2,0-5.7,2.6-5.7,5.7v53.1c0,3.2,2.6,5.7,5.7,5.7h87c3.2,0,5.7-2.6,5.7-5.7
			v-53.1c0-3.2-2.6-5.7-5.7-5.7H635.6z"/>
	</g>
	<g>
		<path class="st2" d="M679.1,816.5c-0.3,0-0.7-0.1-0.9-0.3l-48.3-38.6l1.9-2.3l47.4,37.9l47.4-37.9l1.9,2.3L680,816.2
			C679.7,816.4,679.4,816.5,679.1,816.5z"/>
	</g>
</g>
<g>
	<g>
		<path class="st7" d="M426.4,764.9h-29c-0.8,0-1.5-0.7-1.5-1.5v-2.6c0-3.6,2.7-7.2,6.2-8.2l12.3-3.5v-6.3h3v7.4
			c0,0.7-0.4,1.3-1.1,1.4l-13.4,3.8c-2.2,0.6-4,3-4,5.3v1.1h27.5V764.9z"/>
	</g>
	<g>
		<path class="st7" d="M450.1,764.9h-29v-3h27.5v-1.1c0-2.2-1.8-4.7-4-5.3l-13.4-3.8c-0.6-0.2-1.1-0.8-1.1-1.4v-7.4h3v6.3l12.3,3.5
			c3.5,1,6.2,4.6,6.2,8.2v2.6C451.6,764.2,450.9,764.9,450.1,764.9z"/>
	</g>
	<g>
		<path class="st7" d="M423.7,746.7c-9.5,0-17.3-8.4-17.3-18.7c0-10.3,7.8-18.7,17.3-18.7s17.3,8.4,17.3,18.7
			C441,738.3,433.3,746.7,423.7,746.7z M423.7,712.2c-7.9,0-14.3,7.1-14.3,15.7c0,8.7,6.4,15.7,14.3,15.7s14.3-7.1,14.3-15.7
			C438,719.2,431.6,712.2,423.7,712.2z"/>
	</g>
	<g>
		<path class="st7" d="M434.4,728.1c-0.6,0-1.1,0-1.7-0.1c-2.7-0.4-5-1.7-6.6-3.6c-5.8,4.5-14.2,4.4-18.7,1.2l1.7-2.5
			c3.4,2.4,11.3,2.8,16.2-2.1c0.3-0.3,0.8-0.5,1.3-0.4c0.5,0.1,0.9,0.4,1.1,0.8c1.4,2.6,4,3.4,5.4,3.6c2.1,0.3,4.2-0.2,5.2-1.1
			l2.1,2.1C439.1,727.3,436.8,728.1,434.4,728.1z"/>
	</g>
	<g>
		<path class="st7" d="M494.9,764.9h-29c-0.8,0-1.5-0.7-1.5-1.5v-2.6c0-3.6,2.7-7.2,6.2-8.2l12.3-3.5v-6.3h3v7.4
			c0,0.7-0.4,1.3-1.1,1.4l-13.4,3.8c-2.2,0.6-4,3-4,5.3v1.1h27.5V764.9z"/>
	</g>
	<g>
		<path class="st7" d="M518.6,764.9h-29v-3h27.5v-1.1c0-2.2-1.8-4.7-4-5.3l-13.4-3.8c-0.6-0.2-1.1-0.8-1.1-1.4v-7.4h3v6.3l12.3,3.5
			c3.5,1,6.2,4.6,6.2,8.2v2.6C520.1,764.2,519.5,764.9,518.6,764.9z"/>
	</g>
	<g>
		<path class="st7" d="M492.3,746.7c-9.5,0-17.3-8.4-17.3-18.7c0-10.3,7.8-18.7,17.3-18.7c9.5,0,17.3,8.4,17.3,18.7
			C509.6,738.3,501.8,746.7,492.3,746.7z M492.3,712.2c-7.9,0-14.3,7.1-14.3,15.7c0,8.7,6.4,15.7,14.3,15.7s14.3-7.1,14.3-15.7
			C506.6,719.2,500.2,712.2,492.3,712.2z"/>
	</g>
	<g>
		<path class="st7" d="M502.9,728.1c-0.6,0-1.1,0-1.7-0.1c-2.7-0.4-5-1.7-6.6-3.6c-5.8,4.5-14.2,4.4-18.7,1.2l1.7-2.5
			c3.4,2.4,11.3,2.8,16.2-2.1c0.3-0.3,0.8-0.5,1.3-0.4c0.5,0.1,0.9,0.4,1.1,0.8c1.4,2.6,4,3.4,5.4,3.6c2.1,0.3,4.2-0.2,5.2-1.2
			l2.1,2.1C507.5,727.3,505.3,728.1,502.9,728.1z"/>
	</g>
	<g>
		<path class="st7" d="M460.6,833.4h-29c-0.8,0-1.5-0.7-1.5-1.5v-2.6c0-3.6,2.7-7.2,6.2-8.2l12.3-3.5v-6.2h3v7.4
			c0,0.7-0.4,1.3-1.1,1.4l-13.4,3.8c-2.2,0.6-4,3-4,5.3v1.1h27.5V833.4z"/>
	</g>
	<g>
		<path class="st7" d="M484.4,833.4h-29v-3h27.5v-1.1c0-2.2-1.8-4.7-4-5.3l-13.4-3.8c-0.6-0.2-1.1-0.8-1.1-1.4v-7.4h3v6.3l12.3,3.5
			c3.5,1,6.2,4.6,6.2,8.2v2.6C485.9,832.8,485.2,833.4,484.4,833.4z"/>
	</g>
	<g>
		<path class="st7" d="M458,815.2c-9.5,0-17.3-8.4-17.3-18.7c0-10.3,7.8-18.7,17.3-18.7c9.5,0,17.3,8.4,17.3,18.7
			C475.3,806.8,467.5,815.2,458,815.2z M458,780.7c-7.9,0-14.3,7.1-14.3,15.7c0,8.7,6.4,15.7,14.3,15.7s14.3-7.1,14.3-15.7
			C472.3,787.8,465.9,780.7,458,780.7z"/>
	</g>
	<g>
		<path class="st7" d="M468.5,796.5c-0.6,0-1.1,0-1.7-0.1c-2.6-0.4-4.9-1.6-6.4-3.5c-5.8,4.5-14.2,4.4-18.7,1.2l1.7-2.5
			c3.4,2.4,11.3,2.8,16.2-2.1c0.3-0.3,0.8-0.5,1.3-0.4c0.5,0.1,0.9,0.4,1.1,0.8c1.4,2.6,3.9,3.3,5.3,3.5c2.1,0.3,4.3-0.2,5.3-1.2
			l2.1,2.1C473.2,795.7,470.9,796.5,468.5,796.5z"/>
	</g>
	<g>
		
			<rect x="420.9" y="771.2" transform="matrix(0.7071 -0.7071 0.7071 0.7071 -428.1976 527.3193)" class="st7" width="3" height="18.6"/>
	</g>
	<g>
		
			<rect x="484.3" y="779" transform="matrix(0.7071 -0.7071 0.7071 0.7071 -407.347 577.6301)" class="st7" width="18.6" height="3"/>
	</g>
</g>
</svg>
